<svg width="63" height="30" viewBox="0 0 63 30" fill="none" xmlns="http://www.w3.org/2000/svg">
<path d="M0.928 29V22.856H5.296V29H0.928ZM36.6828 14.936C36.6828 17.752 36.1388 20.264 35.0508 22.472C33.9948 24.648 32.5388 26.36 30.6828 27.608C28.8588 28.856 26.7628 29.48 24.3948 29.48C22.0588 29.48 19.9628 28.856 18.1068 27.608C16.2508 26.36 14.7788 24.648 13.6908 22.472C12.6348 20.264 12.1068 17.752 12.1068 14.936C12.1068 12.12 12.6348 9.624 13.6908 7.448C14.7788 5.24 16.2508 3.512 18.1068 2.264C19.9628 0.983999 22.0588 0.344 24.3948 0.344C26.7628 0.344 28.8588 0.983999 30.6828 2.264C32.5388 3.512 33.9948 5.24 35.0508 7.448C36.1388 9.624 36.6828 12.12 36.6828 14.936ZM31.3068 14.936C31.3068 13.016 31.0188 11.336 30.4428 9.896C29.8668 8.424 29.0508 7.288 27.9948 6.488C26.9388 5.656 25.7388 5.24 24.3948 5.24C23.0188 5.24 21.8028 5.656 20.7468 6.488C19.6908 7.288 18.8588 8.424 18.2508 9.896C17.6748 11.336 17.3868 13.016 17.3868 14.936C17.3868 16.856 17.6748 18.536 18.2508 19.976C18.8588 21.416 19.6908 22.552 20.7468 23.384C21.8028 24.184 23.0188 24.584 24.3948 24.584C25.7388 24.584 26.9228 24.184 27.9468 23.384C29.0028 22.552 29.8188 21.416 30.3948 19.976C31.0028 18.536 31.3068 16.856 31.3068 14.936ZM62.0391 24.248V29H43.7031V24.248H50.5191V7.496C50.2311 7.88 49.7831 8.28 49.1751 8.696C48.5671 9.112 47.8791 9.512 47.1111 9.896C46.3751 10.248 45.6231 10.536 44.8551 10.76C44.0871 10.984 43.3831 11.096 42.7431 11.096V6.152C43.3831 6.152 44.1191 5.96 44.9511 5.576C45.7831 5.192 46.5991 4.744 47.3991 4.232C48.2311 3.688 48.9351 3.176 49.5111 2.696C50.0871 2.184 50.4231 1.816 50.5191 1.592H55.9431V24.248H62.0391Z" fill="black"/>
</svg>
