<svg width="65" height="37" viewBox="0 0 65 37" fill="none" xmlns="http://www.w3.org/2000/svg">
<path d="M0.928 29V22.856H5.296V29H0.928ZM36.6828 14.936C36.6828 17.752 36.1388 20.264 35.0508 22.472C33.9948 24.648 32.5388 26.36 30.6828 27.608C28.8588 28.856 26.7628 29.48 24.3948 29.48C22.0588 29.48 19.9628 28.856 18.1068 27.608C16.2508 26.36 14.7788 24.648 13.6908 22.472C12.6348 20.264 12.1068 17.752 12.1068 14.936C12.1068 12.12 12.6348 9.624 13.6908 7.448C14.7788 5.24 16.2508 3.512 18.1068 2.264C19.9628 0.983999 22.0588 0.344 24.3948 0.344C26.7628 0.344 28.8588 0.983999 30.6828 2.264C32.5388 3.512 33.9948 5.24 35.0508 7.448C36.1388 9.624 36.6828 12.12 36.6828 14.936ZM31.3068 14.936C31.3068 13.016 31.0188 11.336 30.4428 9.896C29.8668 8.424 29.0508 7.288 27.9948 6.488C26.9388 5.656 25.7388 5.24 24.3948 5.24C23.0188 5.24 21.8028 5.656 20.7468 6.488C19.6908 7.288 18.8588 8.424 18.2508 9.896C17.6748 11.336 17.3868 13.016 17.3868 14.936C17.3868 16.856 17.6748 18.536 18.2508 19.976C18.8588 21.416 19.6908 22.552 20.7468 23.384C21.8028 24.184 23.0188 24.584 24.3948 24.584C25.7388 24.584 26.9228 24.184 27.9468 23.384C29.0028 22.552 29.8188 21.416 30.3948 19.976C31.0028 18.536 31.3068 16.856 31.3068 14.936ZM58.2951 17.672C59.6391 17.896 60.8071 18.408 61.7991 19.208C62.8231 19.976 63.6071 20.968 64.1511 22.184C64.6951 23.368 64.9671 24.712 64.9671 26.216C64.9671 28.2 64.4711 29.928 63.4791 31.4C62.5191 32.872 61.1431 34.008 59.3511 34.808C57.5591 35.64 55.4471 36.056 53.0151 36.056C50.5831 36.056 48.4391 35.624 46.5831 34.76C44.7271 33.928 43.2391 32.712 42.1191 31.112L45.3351 27.464C46.1031 28.616 47.0951 29.528 48.3111 30.2C49.5271 30.904 51.0631 31.256 52.9191 31.256C54.9991 31.256 56.6151 30.808 57.7671 29.912C58.9191 29.016 59.4951 27.672 59.4951 25.88C59.4951 24.024 58.8551 22.568 57.5751 21.512C56.3271 20.456 54.4391 19.928 51.9111 19.928H50.6151V15.8H52.0551C54.1991 15.8 55.8471 15.304 56.9991 14.312C58.1511 13.288 58.7271 12.008 58.7271 10.472C58.7271 9.448 58.4871 8.616 58.0071 7.976C57.5591 7.304 56.9191 6.808 56.0871 6.488C55.2551 6.168 54.2951 6.008 53.2071 6.008C51.5751 6.008 50.1351 6.36 48.8871 7.064C47.6391 7.768 46.6471 8.776 45.9111 10.088L42.5991 6.488C43.2391 5.464 44.1191 4.568 45.2391 3.8C46.3591 3.032 47.6391 2.44 49.0791 2.024C50.5511 1.576 52.1031 1.352 53.7351 1.352C55.8471 1.352 57.7031 1.704 59.3031 2.408C60.9031 3.112 62.1351 4.104 62.9991 5.384C63.8951 6.664 64.3431 8.168 64.3431 9.896C64.3431 11.144 64.1031 12.328 63.6231 13.448C63.1431 14.536 62.4391 15.464 61.5111 16.232C60.5831 16.968 59.5111 17.448 58.2951 17.672Z" fill="black"/>
</svg>
