<svg width="66" height="36" viewBox="0 0 66 36" fill="none" xmlns="http://www.w3.org/2000/svg">
<path d="M0.928 29V22.856H5.296V29H0.928ZM36.6828 14.936C36.6828 17.752 36.1388 20.264 35.0508 22.472C33.9948 24.648 32.5388 26.36 30.6828 27.608C28.8588 28.856 26.7628 29.48 24.3948 29.48C22.0588 29.48 19.9628 28.856 18.1068 27.608C16.2508 26.36 14.7788 24.648 13.6908 22.472C12.6348 20.264 12.1068 17.752 12.1068 14.936C12.1068 12.12 12.6348 9.624 13.6908 7.448C14.7788 5.24 16.2508 3.512 18.1068 2.264C19.9628 0.983999 22.0588 0.344 24.3948 0.344C26.7628 0.344 28.8588 0.983999 30.6828 2.264C32.5388 3.512 33.9948 5.24 35.0508 7.448C36.1388 9.624 36.6828 12.12 36.6828 14.936ZM31.3068 14.936C31.3068 13.016 31.0188 11.336 30.4428 9.896C29.8668 8.424 29.0508 7.288 27.9948 6.488C26.9388 5.656 25.7388 5.24 24.3948 5.24C23.0188 5.24 21.8028 5.656 20.7468 6.488C19.6908 7.288 18.8588 8.424 18.2508 9.896C17.6748 11.336 17.3868 13.016 17.3868 14.936C17.3868 16.856 17.6748 18.536 18.2508 19.976C18.8588 21.416 19.6908 22.552 20.7468 23.384C21.8028 24.184 23.0188 24.584 24.3948 24.584C25.7388 24.584 26.9228 24.184 27.9468 23.384C29.0028 22.552 29.8188 21.416 30.3948 19.976C31.0028 18.536 31.3068 16.856 31.3068 14.936ZM56.3751 35.096V27.464H41.6391V22.76L58.0551 1.592H61.6551V22.664H65.8791V27.464H61.6551V35.096H56.3751ZM47.0151 22.664H56.9511V9.656L47.0151 22.664Z" fill="black"/>
</svg>
