<svg width="40" height="41" viewBox="0 0 40 41" fill="none" xmlns="http://www.w3.org/2000/svg">
<path d="M29.166 8.18068C26.626 7.33901 23.576 6.77734 19.9993 6.77734C16.4243 6.77734 13.3727 7.33901 10.8327 8.18068M29.166 8.18068C34.201 9.84734 37.2243 12.614 38.3327 14.2773L34.166 18.444L29.166 15.1107V8.18068ZM10.8327 8.18068C5.79768 9.84734 2.77435 12.614 1.66602 14.2773L5.83268 18.444L10.8327 15.1107V8.18068ZM16.666 11.7773V16.7773M16.666 16.7773L7.64268 25.8007C7.01752 26.4257 6.6662 27.2734 6.66602 28.1573V30.1107C6.66602 30.9947 7.0172 31.8426 7.64233 32.4677C8.26745 33.0928 9.11529 33.444 9.99935 33.444H29.9993C30.8834 33.444 31.7312 33.0928 32.3564 32.4677C32.9815 31.8426 33.3327 30.9947 33.3327 30.1107V28.1573C33.3325 27.2734 32.9812 26.4257 32.356 25.8007L23.3327 16.7773M16.666 16.7773H23.3327M23.3327 16.7773V11.7773" stroke="white" stroke-width="2" stroke-linecap="round" stroke-linejoin="round"/>
<path d="M19.9993 28.444C21.8403 28.444 23.3327 26.9516 23.3327 25.1107C23.3327 23.2697 21.8403 21.7773 19.9993 21.7773C18.1584 21.7773 16.666 23.2697 16.666 25.1107C16.666 26.9516 18.1584 28.444 19.9993 28.444Z" stroke="white" stroke-width="2" stroke-linecap="round" stroke-linejoin="round"/>
</svg>
