<svg width="40" height="41" viewBox="0 0 40 41" fill="none" xmlns="http://www.w3.org/2000/svg">
<path d="M14.9993 15.1106L22.4993 20.1106L29.9994 15.1106M4.99935 22.6106H8.33268M1.66602 17.6106H8.33268" stroke="white" stroke-width="2" stroke-linecap="round" stroke-linejoin="round"/>
<path d="M8.33203 12.6105V11.7772C8.33203 10.8931 8.68322 10.0453 9.30834 9.42016C9.93346 8.79504 10.7813 8.44385 11.6654 8.44385H33.332C34.2161 8.44385 35.0639 8.79504 35.6891 9.42016C36.3142 10.0453 36.6654 10.8931 36.6654 11.7772V28.4438C36.6654 29.3279 36.3142 30.1757 35.6891 30.8009C35.0639 31.426 34.2161 31.7772 33.332 31.7772H11.6654C10.7813 31.7772 9.93346 31.426 9.30834 30.8009C8.68322 30.1757 8.33203 29.3279 8.33203 28.4438V27.6105" stroke="white" stroke-width="2" stroke-linecap="round"/>
</svg>
