<svg width="59" height="60" viewBox="0 0 59 60" fill="none" xmlns="http://www.w3.org/2000/svg">
<path fill-rule="evenodd" clip-rule="evenodd" d="M50.1871 33.9069C48.8889 32.6086 47.0951 31.8055 45.1139 31.8055C43.1326 31.8055 41.3389 32.6085 40.0406 33.9068C38.7424 35.205 37.9394 36.9988 37.9394 38.9801C37.9394 40.9615 38.7424 42.7551 40.0406 44.0534C41.3389 45.3516 43.1326 46.1546 45.1139 46.1546C47.0951 46.1546 48.8889 45.3516 50.1871 44.0534C51.4854 42.7551 52.2884 40.9614 52.2884 38.9801C52.2884 36.9989 51.4854 35.2051 50.1871 33.9069ZM45.1139 30.2085C47.536 30.2085 49.7289 31.1904 51.3162 32.7778C52.9036 34.3651 53.8855 36.558 53.8855 38.9801C53.8855 41.4023 52.9036 43.5951 51.3162 45.1825C49.7289 46.7699 47.536 47.7518 45.1139 47.7518C42.6917 47.7518 40.4989 46.7699 38.9115 45.1825C37.3241 43.5951 36.3424 41.4023 36.3424 38.9801C36.3424 36.558 37.3242 34.365 38.9115 32.7778C40.4989 31.1904 42.6917 30.2086 45.1139 30.2086V30.2085ZM53.0869 49.3869C52.9484 49.5638 52.8139 49.7934 52.6792 50.0234C52.3236 50.6306 51.9667 51.24 51.2804 51.5766C50.5945 51.913 49.8974 51.8261 49.1962 51.7388C49.0384 51.7191 48.8801 51.6994 48.7292 51.6866L51.9087 57.2631L52.736 54.8141C52.798 54.6288 52.926 54.4728 53.0957 54.3758C53.2653 54.2788 53.4647 54.2476 53.6559 54.2881L53.6561 54.287L56.186 54.8226L53.0868 49.387L53.0869 49.3869ZM45.544 38.1001C45.5999 38.2377 45.6933 38.3569 45.8135 38.4441C45.9337 38.5313 46.076 38.5831 46.2241 38.5935L46.2239 38.596L47.351 38.6794L46.4861 39.4109C46.3678 39.511 46.2812 39.6435 46.237 39.7921C46.1928 39.9407 46.193 40.099 46.2374 40.2475L46.4982 41.3119L45.5316 40.7131C45.4037 40.6341 45.2559 40.593 45.1055 40.5945C44.9551 40.596 44.8082 40.6402 44.6819 40.7218L43.7291 41.3119L44.0001 40.2061C44.0349 40.0626 44.029 39.9123 43.9832 39.772C43.9374 39.6316 43.8534 39.5068 43.7407 39.4114L43.7412 39.4108L42.8765 38.6793L44.0036 38.5959C44.1635 38.5846 44.3164 38.5254 44.4421 38.426C44.5679 38.3265 44.6607 38.1915 44.7086 38.0385L45.1137 37.0473L45.5439 38.0999L45.544 38.1001ZM45.8499 34.6473L46.8284 37.0416L49.411 37.2325C49.5717 37.2439 49.7253 37.3038 49.8513 37.4042C49.9774 37.5046 50.07 37.6408 50.1171 37.7949C50.1642 37.9491 50.1635 38.1138 50.1151 38.2675C50.0667 38.4213 49.9729 38.5567 49.846 38.656L47.8915 40.3093L48.5085 42.8264C48.5462 42.9817 48.5362 43.1448 48.4799 43.2943C48.4236 43.4439 48.3235 43.573 48.1928 43.6649C48.062 43.7568 47.9066 43.8072 47.7468 43.8095C47.587 43.8118 47.4302 43.766 47.2969 43.6779L45.1139 42.3258L42.9107 43.6904C42.7766 43.7732 42.6208 43.8142 42.4633 43.8084C42.3058 43.8025 42.1535 43.7499 42.0259 43.6574C41.8983 43.5648 41.8011 43.4364 41.7465 43.2885C41.692 43.1405 41.6827 42.9798 41.7197 42.8265H41.7194L42.3364 40.3094L40.3584 38.6363C40.2375 38.5339 40.1499 38.3978 40.1068 38.2454C40.0636 38.093 40.0668 37.9312 40.116 37.7807C40.1652 37.6301 40.2582 37.4977 40.383 37.4002C40.5078 37.3027 40.6589 37.2446 40.8169 37.2334V37.2328L43.3994 37.0419L44.3779 34.6475C44.4374 34.5011 44.5392 34.3758 44.6704 34.2876C44.8015 34.1994 44.9559 34.1523 45.1139 34.1523C45.272 34.1523 45.4264 34.1994 45.5575 34.2876C45.6886 34.3758 45.7905 34.5011 45.85 34.6475L45.8499 34.6473ZM31.2921 12.6645C31.6129 12.3753 31.8864 12.0334 31.8557 11.8089C31.8485 11.7554 31.8467 11.7013 31.8505 11.6474C31.9678 7.60577 31.5251 4.77727 30.5224 3.16239C29.6489 1.75552 28.2558 1.34714 26.3433 1.93739C26.2252 1.9739 26.1002 1.98225 25.9784 1.96177V1.96227C21.114 1.14327 17.7719 1.67289 15.9519 3.55127C14.2998 5.25639 13.8344 8.15114 14.5555 12.2346C15.0726 11.7981 15.5175 11.3524 15.8897 10.897C16.4587 10.2011 16.8538 9.48752 17.0744 8.75652C17.1057 8.65155 17.1582 8.55415 17.2288 8.47039C17.2994 8.38663 17.3865 8.31831 17.4846 8.26968C17.5828 8.22106 17.6899 8.19318 17.7993 8.18777C17.9087 8.18237 18.018 8.19956 18.1205 8.23827C19.891 8.85939 21.6321 9.03189 23.3438 8.75552C25.0705 8.47677 26.7842 7.73789 28.4849 6.53927C28.5842 6.46941 28.6981 6.42317 28.818 6.40406C28.9379 6.38494 29.0605 6.39347 29.1766 6.42898C29.2927 6.46449 29.3991 6.52605 29.4878 6.60896C29.5765 6.69187 29.645 6.79395 29.6882 6.90739C30.191 8.01552 30.5818 9.12677 30.8605 10.2415C31.06 11.0382 31.2043 11.8478 31.2922 12.6644L31.2921 12.6645ZM31.5841 14.4299C31.5134 14.4709 31.4435 14.5075 31.3756 14.5393V18.442C31.4506 18.3415 31.5301 18.2319 31.6122 18.116C31.9827 17.5931 32.3146 16.9365 32.5105 16.2883C32.6821 15.7205 32.7416 15.1918 32.6066 14.8394C32.5136 14.5964 32.2481 14.4374 31.7312 14.4423C31.6819 14.4427 31.6326 14.4385 31.584 14.4298L31.5841 14.4299ZM14.0648 14.4414C14.0466 14.4423 14.0286 14.4426 14.0106 14.4423C13.4999 14.4394 13.237 14.5979 13.1445 14.8394C13.0096 15.1918 13.0691 15.7205 13.2406 16.2883C13.4366 16.9365 13.7685 17.5931 14.1389 18.116C14.2105 18.2173 14.2832 18.3178 14.3571 18.4174V14.3703L14.3535 14.3719L14.3523 14.3724L14.3445 14.3758L14.3426 14.3766L14.34 14.3778L14.3378 14.3788C14.2615 14.4113 14.1805 14.4316 14.0979 14.439H14.0972L14.0924 14.4395L14.0869 14.44L14.0814 14.4404L14.0702 14.441L14.0648 14.4414ZM29.7789 13.7084L29.7786 13.727V18.5871C29.7786 20.256 29.0951 21.774 27.9941 22.875C26.8931 23.976 25.3753 24.6595 23.7063 24.6595H22.0265C20.3575 24.6595 18.8396 23.9761 17.7386 22.8751C16.6376 21.7741 15.9543 20.2563 15.9543 18.5873V13.1296C16.3946 12.7309 16.7849 12.3235 17.1249 11.9078C17.6339 11.2853 18.0328 10.6415 18.3218 9.97664C20.0959 10.4918 21.8531 10.6089 23.5933 10.3279C25.2866 10.0545 26.9515 9.40664 28.588 8.38427C28.8796 9.11532 29.1219 9.86508 29.3134 10.6285C29.5693 11.6523 29.7245 12.6789 29.779 13.7085L29.7789 13.7084ZM18.6138 34.853L21.6955 32.0136L16.1619 27.0994L14.9727 28.2331L18.6138 34.853ZM22.8822 30.9399L18.3269 26.8944L18.9785 25.6215C19.9398 26.0412 20.9776 26.2574 22.0265 26.2565H23.7063C24.7552 26.2574 25.7929 26.0412 26.7542 25.6215L27.4158 26.9138L22.8822 30.9399ZM25.9294 33.7276C26.0477 33.791 26.1479 33.8834 26.2208 33.9961L27.1509 34.853L30.7919 28.2331L29.6029 27.0994L24.0693 32.0136L25.9296 33.7278L25.9294 33.7276ZM23.8866 37.3149H21.9174C21.019 41.0588 20.1214 44.803 19.2234 48.547L22.902 52.6825L26.5806 48.547C25.6826 44.803 24.785 41.0588 23.8866 37.3149ZM22.0164 35.7179L21.2803 34.5633L22.8822 33.0873L24.5091 34.5861L23.7876 35.7179H22.0165H22.0164ZM37.1866 49.4471H37.1066L34.0417 54.8225L36.5716 54.2869L36.5719 54.288C36.763 54.2475 36.9624 54.2787 37.1321 54.3757C37.3017 54.4727 37.4297 54.6287 37.4917 54.814L38.3191 57.263L41.4986 51.6865C41.3479 51.6993 41.1896 51.719 41.0317 51.7386C40.3306 51.826 39.6334 51.9129 38.9475 51.5765C38.2611 51.2399 37.9042 50.6305 37.5487 50.0233C37.4289 49.8186 37.3092 49.6143 37.1867 49.447L37.1866 49.4471ZM38.0459 48.0261C38.0111 47.9949 37.9754 47.9643 37.9384 47.9346C37.7102 47.7515 37.4601 47.6189 37.1995 47.5104C37.1872 47.505 37.1748 47.4999 37.1622 47.495C36.9344 47.4024 36.6989 47.3271 36.4632 47.2519C36.0262 47.1123 35.5889 46.9725 35.4136 46.7541C35.2396 46.5373 35.197 46.0789 35.1545 45.6195C35.1044 45.0784 35.0541 44.5361 34.8044 44.0269C34.5564 43.5214 34.1676 43.153 33.7766 42.7828C33.4304 42.4549 33.0817 42.1245 33.013 41.8316C32.9437 41.5365 33.1052 41.0793 33.2685 40.617C33.4542 40.0911 33.6416 39.5606 33.6416 38.9801C33.6416 38.3996 33.4542 37.8691 33.2685 37.3433C33.1052 36.881 32.9437 36.4239 33.013 36.1286C33.0817 35.8356 33.4305 35.5054 33.7766 35.1775C34.1675 34.8073 34.5564 34.439 34.8044 33.9334C35.0541 33.4241 35.1044 32.882 35.1545 32.3408C35.197 31.8814 35.2396 31.423 35.4136 31.2063C35.5889 30.9879 36.0262 30.8481 36.4632 30.7084C36.9821 30.5426 37.5007 30.3768 37.9384 30.0256C38.3737 29.6763 38.647 29.2095 38.921 28.7416C39.1562 28.3398 39.3924 27.9366 39.6461 27.8121C39.8976 27.6888 40.3666 27.7473 40.8382 27.806C41.379 27.8734 41.9225 27.9411 42.4807 27.8101C43.0229 27.6829 43.476 27.3909 43.9334 27.0961C44.353 26.8258 44.7777 26.5519 45.1139 26.5519C45.45 26.5519 45.8747 26.8258 46.2944 27.0961C46.7517 27.3909 47.2047 27.683 47.747 27.8101C48.3054 27.9411 48.8487 27.8734 49.3895 27.806C49.8611 27.7473 50.3301 27.6889 50.5816 27.8121C50.8352 27.9365 51.0714 28.3398 51.3067 28.7416C51.5807 29.2095 51.854 29.6763 52.2894 30.0256C52.727 30.3769 53.2456 30.5426 53.7645 30.7084C54.2015 30.848 54.6389 30.9878 54.8141 31.2063C54.9881 31.4231 55.0307 31.8815 55.0732 32.3408C55.1234 32.882 55.1737 33.4241 55.4234 33.9334C55.6714 34.439 56.0602 34.8073 56.4511 35.1775C56.7972 35.5054 57.146 35.8356 57.2147 36.1286C57.284 36.4238 57.1225 36.881 56.9592 37.3433C56.7735 37.8691 56.5861 38.3996 56.5861 38.9801C56.5861 39.5606 56.7735 40.0911 56.9592 40.617C57.1225 41.0793 57.284 41.5364 57.2147 41.8316C57.146 42.1246 56.7974 42.4549 56.4511 42.7828C56.0601 43.153 55.6712 43.5214 55.4234 44.0269C55.1736 44.536 55.1234 45.0783 55.0732 45.6195C55.0306 46.0788 54.9881 46.5373 54.8141 46.7541C54.6389 46.9725 54.2015 47.1123 53.7645 47.2519C53.5286 47.3273 53.2927 47.4026 53.0645 47.4955C53.0523 47.5002 53.0403 47.5051 53.0284 47.5104C52.7676 47.619 52.5175 47.7516 52.2894 47.9348C51.8541 48.2841 51.5807 48.7509 51.3067 49.2188C51.0715 49.6206 50.8354 50.0238 50.5816 50.1483C50.3301 50.2716 49.8611 50.2131 49.3895 50.1544C48.8487 50.087 48.3052 50.0193 47.7469 50.1503C47.2047 50.2775 46.7517 50.5695 46.2944 50.8643C45.8747 51.1348 45.45 51.4085 45.1139 51.4085C44.7777 51.4085 44.3529 51.1346 43.9334 50.8643C43.476 50.5695 43.0229 50.2774 42.4807 50.1503C41.9224 50.0193 41.379 50.087 40.8382 50.1544C40.3666 50.2131 39.8976 50.2715 39.6461 50.1483C39.3925 50.0239 39.1564 49.6206 38.921 49.2188C38.692 48.8278 38.4635 48.4375 38.1405 48.116C38.1114 48.0836 38.0797 48.0536 38.0459 48.0263V48.0261ZM28.0487 47.8503H34.2559C34.2271 47.8184 34.1992 47.7857 34.1722 47.7523C33.6999 47.1636 33.635 46.464 33.57 45.7631C33.5334 45.368 33.4966 44.972 33.3757 44.7258C33.258 44.4858 32.9691 44.2121 32.6786 43.937C32.1597 43.4455 31.6373 42.9506 31.4596 42.1936C31.2845 41.4473 31.5234 40.7709 31.765 40.087C31.9041 39.693 32.0445 39.2955 32.0445 38.9804C32.0445 38.6653 31.9041 38.2678 31.765 37.8738C31.5234 37.1898 31.2845 36.5135 31.4596 35.7671C31.6373 35.0101 32.1597 34.5151 32.6786 34.0238C32.9691 33.7486 33.258 33.475 33.3757 33.235C33.4966 32.9886 33.5334 32.5926 33.57 32.1976C33.635 31.4966 33.6999 30.7971 34.1722 30.2085C34.3787 29.9513 34.6232 29.7655 34.8891 29.6201C34.0154 29.318 33.113 29.1062 32.1961 28.988L28.0576 36.5124C27.9984 36.6202 27.9151 36.7129 27.8141 36.7832C27.7131 36.8535 27.5972 36.8994 27.4755 36.9174C27.3538 36.9354 27.2295 36.925 27.1125 36.887C26.9955 36.849 26.8889 36.7844 26.801 36.6983L25.6973 35.6813L25.285 36.3279L28.0487 47.8506V47.8503ZM17.8894 49.4471H0.7985C0.586725 49.4471 0.383623 49.363 0.233875 49.2133C0.0841275 49.0635 0 48.8604 0 48.6486V42.5666C0 38.6101 1.5265 34.9904 4.02012 32.2665C6.4535 29.6086 9.80662 27.8064 13.5597 27.3794L15.593 25.4406L15.5936 25.4414C15.7379 25.3041 15.9284 25.226 16.1275 25.2224C16.3266 25.2188 16.5199 25.2901 16.669 25.422L17.0986 25.8036L17.5935 24.8369C17.2425 24.5869 16.9134 24.3081 16.6094 24.0041C15.6597 23.0545 14.9564 21.8584 14.606 20.5228C13.995 20.3301 13.368 19.7765 12.8412 19.033C12.371 18.3691 11.9535 17.5483 11.7121 16.7499C11.4465 15.871 11.3808 14.9835 11.6534 14.2718C11.8931 13.6458 12.3451 13.1756 13.0735 12.9683C12.1387 8.11002 12.7174 4.60064 14.81 2.44102C16.993 0.188015 20.743 -0.505234 26.0594 0.360641C28.6619 -0.386359 30.6007 0.26664 31.8757 2.32027C33.0439 4.20164 33.5657 7.31827 33.4415 11.6698C33.4795 12.1339 33.2867 12.6304 32.99 13.0805C33.538 13.322 33.894 13.7409 34.0974 14.2718C34.3699 14.9835 34.3042 15.871 34.0386 16.7499C33.7974 17.5483 33.3798 18.3693 32.9095 19.033C32.377 19.7846 31.7421 20.342 31.1249 20.5289C30.774 21.8619 30.0713 23.056 29.1231 24.0041C28.8188 24.3086 28.4896 24.5871 28.139 24.8369L28.6438 25.823L29.0953 25.4221C29.2444 25.2902 29.4376 25.219 29.6367 25.2226C29.8358 25.2261 30.0263 25.3043 30.1706 25.4415L30.1713 25.4408L32.212 27.3868C33.0454 27.4836 33.8693 27.6496 34.6751 27.883C35.4633 28.1116 36.2316 28.4038 36.9725 28.7566C37.1719 28.5796 37.3599 28.2586 37.5482 27.9369C37.9039 27.3296 38.2606 26.7203 38.947 26.3836C39.6329 26.0473 40.33 26.1341 41.0311 26.2215C41.4344 26.2718 41.8396 26.3223 42.1185 26.2568C42.3932 26.1924 42.7311 25.9745 43.0721 25.7548C43.6889 25.3573 44.3134 24.9548 45.1135 24.9548C45.9136 24.9548 46.5381 25.3573 47.1549 25.7548C47.4959 25.9745 47.8336 26.1923 48.1085 26.2568C48.3872 26.3221 48.7926 26.2716 49.1959 26.2214C49.8971 26.134 50.5942 26.0473 51.28 26.3835C51.9664 26.7201 52.3232 27.3295 52.6789 27.9368C52.8775 28.2759 53.0756 28.6144 53.2871 28.7841C53.4991 28.9543 53.8717 29.0734 54.2445 29.1925C54.9137 29.4064 55.5835 29.6205 56.0551 30.208C56.5275 30.7966 56.5924 31.4963 56.6574 32.1971C56.694 32.5923 56.7307 32.9881 56.8516 33.2345C56.9692 33.4745 57.2582 33.7481 57.5487 34.0233C58.0676 34.5146 58.5901 35.0095 58.7677 35.7666C58.9429 36.513 58.704 37.1894 58.4624 37.8733C58.3232 38.2673 58.1829 38.6648 58.1829 38.9799C58.1829 39.295 58.3232 39.6926 58.4624 40.0865C58.704 40.7705 58.9429 41.4468 58.7677 42.1931C58.5901 42.9503 58.0676 43.4451 57.5487 43.9365C57.2582 44.2116 56.9694 44.4853 56.8516 44.7253C56.7307 44.9716 56.694 45.3676 56.6574 45.7626C56.5924 46.4635 56.5275 47.1631 56.0551 47.7518C55.6475 48.2596 55.0919 48.4885 54.5164 48.6794L58.4299 55.5433C58.5137 55.6758 58.5565 55.8301 58.5531 55.9868C58.5497 56.1436 58.5001 56.2958 58.4106 56.4246C58.3211 56.5533 58.1956 56.6528 58.0498 56.7105C57.9041 56.7683 57.7445 56.7818 57.5911 56.7494L54.0177 55.9929L52.8544 59.437C52.8078 59.5848 52.719 59.7158 52.599 59.8139C52.479 59.912 52.333 59.9729 52.1788 59.9892C52.0247 60.0055 51.8692 59.9765 51.7313 59.9057C51.5934 59.8348 51.4793 59.7253 51.4027 59.5905L47.182 52.1879L47.1551 52.2053C46.5384 52.6028 45.9139 53.0054 45.1137 53.0054C44.3136 53.0054 43.689 52.6029 43.0724 52.2053L43.0455 52.1879L38.8247 59.5905C38.7482 59.7253 38.634 59.8347 38.4962 59.9055C38.3583 59.9763 38.2028 60.0054 38.0487 59.9891C37.8946 59.9728 37.7486 59.9119 37.6286 59.8138C37.5086 59.7157 37.4198 59.5848 37.3731 59.437L36.2096 55.9929L32.6362 56.7494C32.4829 56.7818 32.3233 56.7683 32.1775 56.7105C32.0318 56.6528 31.9063 56.5533 31.8168 56.4246C31.7273 56.2958 31.6777 56.1436 31.6743 55.9868C31.6708 55.8301 31.7137 55.6758 31.7975 55.5433L35.2735 49.4469H27.9146L23.5055 54.4038C23.4988 54.4115 23.4917 54.4193 23.4846 54.4268L23.4827 54.4286L23.4716 54.4401L23.4657 54.446L23.4599 54.4519L23.4484 54.463L23.4465 54.4649C23.3933 54.5148 23.3334 54.5571 23.2686 54.5906L23.2658 54.5921L23.2536 54.5981L23.2466 54.6015L23.2395 54.6049L23.2281 54.6101L23.2227 54.6125L23.2103 54.6179L23.206 54.6196C23.1299 54.651 23.0494 54.6704 22.9674 54.677H22.967L22.9486 54.6783H22.9468C22.9349 54.679 22.923 54.6795 22.9111 54.6796H22.8925C22.8806 54.6795 22.8687 54.6791 22.8569 54.6784H22.855L22.8366 54.677H22.8363C22.7542 54.6703 22.6737 54.651 22.5976 54.6196L22.5934 54.6179L22.5809 54.6125L22.5755 54.6101L22.5641 54.6049L22.557 54.6015L22.55 54.5981L22.5379 54.5921L22.535 54.5906C22.4702 54.5571 22.4104 54.5148 22.3571 54.4649L22.3553 54.463L22.3438 54.4519L22.3379 54.446L22.332 54.4401L22.3209 54.4286L22.319 54.4268C22.3119 54.4192 22.305 54.4116 22.2981 54.4038L17.889 49.4469L17.8894 49.4471ZM1.597 47.8503V42.5668C1.597 39.0185 2.96237 35.776 5.193 33.3396C7.33362 31.0014 10.2727 29.4031 13.5679 28.9865L17.707 36.512C17.7662 36.6199 17.8496 36.7126 17.9506 36.7828C18.0516 36.8531 18.1674 36.899 18.2892 36.917C18.4109 36.935 18.5351 36.9246 18.6521 36.8866C18.7691 36.8486 18.8757 36.784 18.9636 36.6979L20.0923 35.658L20.5191 36.3275L17.7554 47.8503H1.597Z" fill="#006699"/>
</svg>
