<svg width="97" height="129" viewBox="0 0 97 129" fill="none" xmlns="http://www.w3.org/2000/svg">
<g filter="url(#filter0_d_3691_64)">
<mask id="path-1-inside-1_3691_64" fill="white">
<path d="M88.8848 52.9851C86.9734 52.61 84.5139 53.6297 83.346 57.6165L79.4265 71.0055C78.4293 71.1088 77.3646 71.567 76.3426 72.5216C75.1837 73.6019 74.0202 74.6464 72.8926 75.6571C65.5322 82.2584 58.5783 88.4935 58.3829 100.872V105.11C58.3829 105.133 58.3851 105.155 58.3874 105.178C58.3874 105.2 58.3829 105.222 58.3829 105.245V108.008H57.8034C56.3007 108.008 55.0789 109.229 55.0789 110.732V117.78C55.0789 119.283 56.3007 120.505 57.8034 120.505H76.6548C78.1575 120.505 79.3794 119.283 79.3794 117.78V110.732C79.3794 109.229 78.1575 108.008 76.6548 108.008H76.1427L76.163 106.453C76.1809 105.452 76.5403 104.625 77.259 103.931L84.213 97.2645C87.5506 94.0594 89.4082 90.2612 89.8866 85.6477L92.6246 58.9192C92.9233 56.0577 91.2769 53.4545 88.8848 52.9851ZM75.7924 116.911H58.6726V111.595H75.7924V116.911ZM89.0578 58.5486L86.3198 85.2749C85.9312 89.0056 84.4308 92.0783 81.731 94.6703L74.7749 101.341C73.3711 102.696 72.6096 104.443 72.5759 106.397L72.5557 108.005H61.9766V105.243C61.9766 105.22 61.9744 105.198 61.9721 105.175C61.9721 105.153 61.9766 105.13 61.9766 105.108V100.914C62.1518 90.113 67.9512 84.9133 75.2915 78.33C76.4302 77.308 77.6094 76.2523 78.7931 75.1473C79.1862 74.7789 79.6983 74.4847 80.0846 74.6104C80.0914 74.6127 80.0981 74.6172 80.1071 74.6194C80.3047 74.6935 80.3946 74.8845 80.4373 75.035C80.5428 75.4033 80.4642 75.866 80.2351 76.3422C80.1475 76.4814 80.0397 76.6229 79.9117 76.7667L70.3748 87.2717C69.7077 88.0061 69.7638 89.1404 70.4961 89.8075C71.2305 90.4746 72.3648 90.4184 73.0319 89.6862L82.1263 79.6686C82.3262 79.5541 82.5082 79.4014 82.6587 79.2082C82.9259 78.8623 83.155 78.5052 83.3482 78.1413C84.7093 75.9042 84.2085 73.548 82.8316 72.1914C82.8294 72.1891 82.8249 72.1869 82.8226 72.1824L86.7892 58.625C87.2407 57.0842 87.8898 56.4485 88.1908 56.5092C88.5614 56.581 89.1813 57.3447 89.0578 58.5486ZM39.6415 108.005H39.062V100.872C38.8666 88.4958 31.9194 82.2629 24.5634 75.6616C23.4359 74.6486 22.2702 73.6042 21.1089 72.5193C20.0847 71.5647 19.0178 71.1088 18.0206 71.0055L14.1011 57.6165C12.9332 53.6319 10.4759 52.6122 8.56227 52.9851C6.16793 53.4545 4.52379 56.0577 4.81578 58.9147L7.56051 85.6432C8.03219 90.2567 9.88971 94.0571 13.2341 97.26L20.1768 103.924C20.9001 104.623 21.2594 105.449 21.2774 106.444L21.2976 108.005H20.7855C19.2829 108.005 18.061 109.227 18.061 110.73V117.778C18.061 119.281 19.2829 120.503 20.7855 120.503H39.637C41.1396 120.503 42.3615 119.281 42.3615 117.778V110.73C42.3682 109.227 41.1441 108.005 39.6415 108.005ZM24.8712 106.388C24.8375 104.439 24.0783 102.693 22.67 101.334L15.7228 94.6681C13.0185 92.0761 11.5181 89.0056 11.1363 85.2749L8.39156 58.5464C8.26803 57.3425 8.88795 56.5788 9.25631 56.5069C9.55728 56.4463 10.2064 57.0819 10.6579 58.6227L14.6245 72.1802C14.6222 72.1824 14.6177 72.1869 14.6132 72.1891C13.142 73.6379 12.6726 76.2276 14.4044 78.595C14.4133 78.6085 14.4223 78.622 14.4336 78.6332C14.4875 78.7051 14.5414 78.7747 14.5975 78.8466C14.6155 78.869 14.6357 78.8937 14.6537 78.9184C14.7255 79.006 14.7997 79.0914 14.876 79.1767L24.4129 89.6817C25.08 90.4162 26.2143 90.4701 26.9488 89.803C27.6833 89.1359 27.7372 88.0016 27.0701 87.2672L17.5332 76.7644C17.5265 76.7575 17.5205 76.75 17.5152 76.742C17.468 76.6903 17.4254 76.6387 17.3849 76.5847C17.3602 76.5533 17.3355 76.5219 17.313 76.4904C17.2951 76.4657 17.2771 76.441 17.2614 76.4163C16.9739 75.9918 16.8683 75.5897 16.902 75.2685C16.9065 75.2326 16.911 75.1989 16.9177 75.163C16.92 75.1495 16.9222 75.1383 16.9267 75.1248C16.9424 75.0664 16.9604 75.0102 16.9851 74.9608V74.9586C17.0637 74.7946 17.1895 74.6711 17.3378 74.6149C17.3422 74.6127 17.3445 74.6127 17.349 74.6104C17.7398 74.4734 18.2609 74.7699 18.6585 75.1428C19.8444 76.2478 21.0236 77.308 22.1646 78.33C29.5004 84.911 35.2953 90.1107 35.4705 100.91V108.001H24.8914L24.8712 106.388ZM38.7767 116.911H21.657V111.595H38.7767V116.911ZM63.8813 114.353C63.8813 115.346 63.0772 116.147 62.0867 116.147H61.9092C60.9165 116.147 60.1146 115.343 60.1146 114.353C60.1146 113.362 60.9187 112.558 61.9092 112.558H62.0867C63.0772 112.558 63.8813 113.36 63.8813 114.353ZM37.337 114.353C37.337 115.346 36.5329 116.147 35.5423 116.147H35.3649C34.3721 116.147 33.5703 115.343 33.5703 114.353C33.5703 113.362 34.3744 112.558 35.3649 112.558H35.5423C36.5329 112.558 37.337 113.36 37.337 114.353Z"/>
</mask>
<path d="M88.8848 52.9851C86.9734 52.61 84.5139 53.6297 83.346 57.6165L79.4265 71.0055C78.4293 71.1088 77.3646 71.567 76.3426 72.5216C75.1837 73.6019 74.0202 74.6464 72.8926 75.6571C65.5322 82.2584 58.5783 88.4935 58.3829 100.872V105.11C58.3829 105.133 58.3851 105.155 58.3874 105.178C58.3874 105.2 58.3829 105.222 58.3829 105.245V108.008H57.8034C56.3007 108.008 55.0789 109.229 55.0789 110.732V117.78C55.0789 119.283 56.3007 120.505 57.8034 120.505H76.6548C78.1575 120.505 79.3794 119.283 79.3794 117.78V110.732C79.3794 109.229 78.1575 108.008 76.6548 108.008H76.1427L76.163 106.453C76.1809 105.452 76.5403 104.625 77.259 103.931L84.213 97.2645C87.5506 94.0594 89.4082 90.2612 89.8866 85.6477L92.6246 58.9192C92.9233 56.0577 91.2769 53.4545 88.8848 52.9851ZM75.7924 116.911H58.6726V111.595H75.7924V116.911ZM89.0578 58.5486L86.3198 85.2749C85.9312 89.0056 84.4308 92.0783 81.731 94.6703L74.7749 101.341C73.3711 102.696 72.6096 104.443 72.5759 106.397L72.5557 108.005H61.9766V105.243C61.9766 105.22 61.9744 105.198 61.9721 105.175C61.9721 105.153 61.9766 105.13 61.9766 105.108V100.914C62.1518 90.113 67.9512 84.9133 75.2915 78.33C76.4302 77.308 77.6094 76.2523 78.7931 75.1473C79.1862 74.7789 79.6983 74.4847 80.0846 74.6104C80.0914 74.6127 80.0981 74.6172 80.1071 74.6194C80.3047 74.6935 80.3946 74.8845 80.4373 75.035C80.5428 75.4033 80.4642 75.866 80.2351 76.3422C80.1475 76.4814 80.0397 76.6229 79.9117 76.7667L70.3748 87.2717C69.7077 88.0061 69.7638 89.1404 70.4961 89.8075C71.2305 90.4746 72.3648 90.4184 73.0319 89.6862L82.1263 79.6686C82.3262 79.5541 82.5082 79.4014 82.6587 79.2082C82.9259 78.8623 83.155 78.5052 83.3482 78.1413C84.7093 75.9042 84.2085 73.548 82.8316 72.1914C82.8294 72.1891 82.8249 72.1869 82.8226 72.1824L86.7892 58.625C87.2407 57.0842 87.8898 56.4485 88.1908 56.5092C88.5614 56.581 89.1813 57.3447 89.0578 58.5486ZM39.6415 108.005H39.062V100.872C38.8666 88.4958 31.9194 82.2629 24.5634 75.6616C23.4359 74.6486 22.2702 73.6042 21.1089 72.5193C20.0847 71.5647 19.0178 71.1088 18.0206 71.0055L14.1011 57.6165C12.9332 53.6319 10.4759 52.6122 8.56227 52.9851C6.16793 53.4545 4.52379 56.0577 4.81578 58.9147L7.56051 85.6432C8.03219 90.2567 9.88971 94.0571 13.2341 97.26L20.1768 103.924C20.9001 104.623 21.2594 105.449 21.2774 106.444L21.2976 108.005H20.7855C19.2829 108.005 18.061 109.227 18.061 110.73V117.778C18.061 119.281 19.2829 120.503 20.7855 120.503H39.637C41.1396 120.503 42.3615 119.281 42.3615 117.778V110.73C42.3682 109.227 41.1441 108.005 39.6415 108.005ZM24.8712 106.388C24.8375 104.439 24.0783 102.693 22.67 101.334L15.7228 94.6681C13.0185 92.0761 11.5181 89.0056 11.1363 85.2749L8.39156 58.5464C8.26803 57.3425 8.88795 56.5788 9.25631 56.5069C9.55728 56.4463 10.2064 57.0819 10.6579 58.6227L14.6245 72.1802C14.6222 72.1824 14.6177 72.1869 14.6132 72.1891C13.142 73.6379 12.6726 76.2276 14.4044 78.595C14.4133 78.6085 14.4223 78.622 14.4336 78.6332C14.4875 78.7051 14.5414 78.7747 14.5975 78.8466C14.6155 78.869 14.6357 78.8937 14.6537 78.9184C14.7255 79.006 14.7997 79.0914 14.876 79.1767L24.4129 89.6817C25.08 90.4162 26.2143 90.4701 26.9488 89.803C27.6833 89.1359 27.7372 88.0016 27.0701 87.2672L17.5332 76.7644C17.5265 76.7575 17.5205 76.75 17.5152 76.742C17.468 76.6903 17.4254 76.6387 17.3849 76.5847C17.3602 76.5533 17.3355 76.5219 17.313 76.4904C17.2951 76.4657 17.2771 76.441 17.2614 76.4163C16.9739 75.9918 16.8683 75.5897 16.902 75.2685C16.9065 75.2326 16.911 75.1989 16.9177 75.163C16.92 75.1495 16.9222 75.1383 16.9267 75.1248C16.9424 75.0664 16.9604 75.0102 16.9851 74.9608V74.9586C17.0637 74.7946 17.1895 74.6711 17.3378 74.6149C17.3422 74.6127 17.3445 74.6127 17.349 74.6104C17.7398 74.4734 18.2609 74.7699 18.6585 75.1428C19.8444 76.2478 21.0236 77.308 22.1646 78.33C29.5004 84.911 35.2953 90.1107 35.4705 100.91V108.001H24.8914L24.8712 106.388ZM38.7767 116.911H21.657V111.595H38.7767V116.911ZM63.8813 114.353C63.8813 115.346 63.0772 116.147 62.0867 116.147H61.9092C60.9165 116.147 60.1146 115.343 60.1146 114.353C60.1146 113.362 60.9187 112.558 61.9092 112.558H62.0867C63.0772 112.558 63.8813 113.36 63.8813 114.353ZM37.337 114.353C37.337 115.346 36.5329 116.147 35.5423 116.147H35.3649C34.3721 116.147 33.5703 115.343 33.5703 114.353C33.5703 113.362 34.3744 112.558 35.3649 112.558H35.5423C36.5329 112.558 37.337 113.36 37.337 114.353Z" stroke="black" stroke-width="2" shape-rendering="crispEdges" mask="url(#path-1-inside-1_3691_64)"/>
</g>
<g filter="url(#filter1_d_3691_64)">
<mask id="path-2-inside-2_3691_64" fill="white">
<path d="M59.3414 67.1832C58.3105 67.0821 57.4682 66.3701 57.1942 65.3706L53.4207 51.2763L51.7384 53.0058C50.9568 53.8077 49.8719 54.2659 48.7534 54.2659H48.7062C47.5764 54.2524 46.487 53.7695 45.7189 52.9429L44.0568 51.164L40.2564 65.3593C39.9779 66.3701 39.1356 67.0821 38.1046 67.1832C38.0215 67.1899 37.9384 67.1944 37.8553 67.1944C36.9209 67.1944 36.0719 66.6755 35.6474 65.8243L33.3137 61.1546L28.954 64.0296C28.0848 64.6024 26.9775 64.5754 26.1352 63.9645C25.2951 63.3536 24.929 62.3114 25.2031 61.3096L30.0322 43.2982L28.0264 42.7951C26.8989 42.5053 25.9757 41.7978 25.4142 40.7983C24.8549 39.8033 24.7291 38.651 25.0638 37.5527L26.1981 33.8332C26.2677 33.6041 26.2205 33.4199 26.0476 33.2514L23.0805 30.3742C22.2697 29.5925 21.8115 28.4942 21.8204 27.3644C21.8294 26.2301 22.3101 25.134 23.1411 24.3569L25.9802 21.702C26.1532 21.5403 26.2048 21.3561 26.1419 21.136L25.0076 17.1492C24.6932 16.0374 24.8414 14.8829 25.4254 13.8968C26.0072 12.9108 26.946 12.2257 28.0691 11.9674L31.856 11.0892C32.0873 11.0353 32.2199 10.9028 32.2783 10.6737L33.2912 6.66216C33.5698 5.5481 34.2728 4.6227 35.2701 4.05894C36.2696 3.49517 37.4285 3.36714 38.5336 3.70405L42.2532 4.83833C42.4755 4.90571 42.6575 4.86079 42.8169 4.69458L45.7121 1.72075C46.4938 0.918896 47.5786 0.460693 48.6972 0.460693H48.7444C49.3047 0.46842 49.8577 0.589177 50.3702 0.815729C50.8828 1.04228 51.3443 1.36997 51.7272 1.77915L54.3753 4.61597C54.5415 4.79341 54.719 4.84058 54.9503 4.77544L58.9282 3.6479C59.4688 3.4934 60.0352 3.45017 60.5931 3.52082C61.1509 3.59147 61.6887 3.77453 62.1738 4.05894C63.1508 4.63394 63.8583 5.602 64.1144 6.71157L64.9926 10.4985C65.0443 10.7253 65.179 10.8646 65.4037 10.9208L69.4152 11.9248C70.5427 12.2123 71.4659 12.9198 72.0274 13.917C72.5867 14.9121 72.7124 16.0666 72.3778 17.1671L71.2435 20.8867C71.1739 21.1158 71.221 21.3 71.394 21.4684L74.3611 24.3457C75.1719 25.1273 75.6301 26.2256 75.6211 27.3554C75.6121 28.4919 75.1315 29.588 74.3004 30.3652L71.4614 33.0201C71.2884 33.1818 71.2368 33.366 71.2996 33.5861L72.4339 37.5729C72.7506 38.6847 72.6024 39.8392 72.0184 40.8252C71.4344 41.8113 70.4955 42.4963 69.3725 42.7546L67.3959 43.2128L72.2453 61.3231C72.517 62.3136 72.1509 63.3558 71.3109 63.9667C70.4686 64.5777 69.3635 64.6046 68.4943 64.0319L64.1324 61.1546L61.7987 65.8243C61.3742 66.6755 60.5251 67.1944 59.5908 67.1944C59.5076 67.1944 59.4245 67.1921 59.3414 67.1832Z"/>
</mask>
<path d="M59.3414 67.1832C58.3105 67.0821 57.4682 66.3701 57.1942 65.3706L53.4207 51.2763L51.7384 53.0058C50.9568 53.8077 49.8719 54.2659 48.7534 54.2659H48.7062C47.5764 54.2524 46.487 53.7695 45.7189 52.9429L44.0568 51.164L40.2564 65.3593C39.9779 66.3701 39.1356 67.0821 38.1046 67.1832C38.0215 67.1899 37.9384 67.1944 37.8553 67.1944C36.9209 67.1944 36.0719 66.6755 35.6474 65.8243L33.3137 61.1546L28.954 64.0296C28.0848 64.6024 26.9775 64.5754 26.1352 63.9645C25.2951 63.3536 24.929 62.3114 25.2031 61.3096L30.0322 43.2982L28.0264 42.7951C26.8989 42.5053 25.9757 41.7978 25.4142 40.7983C24.8549 39.8033 24.7291 38.651 25.0638 37.5527L26.1981 33.8332C26.2677 33.6041 26.2205 33.4199 26.0476 33.2514L23.0805 30.3742C22.2697 29.5925 21.8115 28.4942 21.8204 27.3644C21.8294 26.2301 22.3101 25.134 23.1411 24.3569L25.9802 21.702C26.1532 21.5403 26.2048 21.3561 26.1419 21.136L25.0076 17.1492C24.6932 16.0374 24.8414 14.8829 25.4254 13.8968C26.0072 12.9108 26.946 12.2257 28.0691 11.9674L31.856 11.0892C32.0873 11.0353 32.2199 10.9028 32.2783 10.6737L33.2912 6.66216C33.5698 5.5481 34.2728 4.6227 35.2701 4.05894C36.2696 3.49517 37.4285 3.36714 38.5336 3.70405L42.2532 4.83833C42.4755 4.90571 42.6575 4.86079 42.8169 4.69458L45.7121 1.72075C46.4938 0.918896 47.5786 0.460693 48.6972 0.460693H48.7444C49.3047 0.46842 49.8577 0.589177 50.3702 0.815729C50.8828 1.04228 51.3443 1.36997 51.7272 1.77915L54.3753 4.61597C54.5415 4.79341 54.719 4.84058 54.9503 4.77544L58.9282 3.6479C59.4688 3.4934 60.0352 3.45017 60.5931 3.52082C61.1509 3.59147 61.6887 3.77453 62.1738 4.05894C63.1508 4.63394 63.8583 5.602 64.1144 6.71157L64.9926 10.4985C65.0443 10.7253 65.179 10.8646 65.4037 10.9208L69.4152 11.9248C70.5427 12.2123 71.4659 12.9198 72.0274 13.917C72.5867 14.9121 72.7124 16.0666 72.3778 17.1671L71.2435 20.8867C71.1739 21.1158 71.221 21.3 71.394 21.4684L74.3611 24.3457C75.1719 25.1273 75.6301 26.2256 75.6211 27.3554C75.6121 28.4919 75.1315 29.588 74.3004 30.3652L71.4614 33.0201C71.2884 33.1818 71.2368 33.366 71.2996 33.5861L72.4339 37.5729C72.7506 38.6847 72.6024 39.8392 72.0184 40.8252C71.4344 41.8113 70.4955 42.4963 69.3725 42.7546L67.3959 43.2128L72.2453 61.3231C72.517 62.3136 72.1509 63.3558 71.3109 63.9667C70.4686 64.5777 69.3635 64.6046 68.4943 64.0319L64.1324 61.1546L61.7987 65.8243C61.3742 66.6755 60.5251 67.1944 59.5908 67.1944C59.5076 67.1944 59.4245 67.1921 59.3414 67.1832Z" stroke="#68ABA1" stroke-width="4" shape-rendering="crispEdges" mask="url(#path-2-inside-2_3691_64)"/>
</g>
<defs>
<filter id="filter0_d_3691_64" x="0.782227" y="52.9128" width="95.877" height="75.592" filterUnits="userSpaceOnUse" color-interpolation-filters="sRGB">
<feFlood flood-opacity="0" result="BackgroundImageFix"/>
<feColorMatrix in="SourceAlpha" type="matrix" values="0 0 0 0 0 0 0 0 0 0 0 0 0 0 0 0 0 0 127 0" result="hardAlpha"/>
<feOffset dy="4"/>
<feGaussianBlur stdDeviation="2"/>
<feComposite in2="hardAlpha" operator="out"/>
<feColorMatrix type="matrix" values="0 0 0 0 0 0 0 0 0 0 0 0 0 0 0 0 0 0 0.25 0"/>
<feBlend mode="normal" in2="BackgroundImageFix" result="effect1_dropShadow_3691_64"/>
<feBlend mode="normal" in="SourceGraphic" in2="effect1_dropShadow_3691_64" result="shape"/>
</filter>
<filter id="filter1_d_3691_64" x="17.8203" y="0.460693" width="61.8008" height="74.7336" filterUnits="userSpaceOnUse" color-interpolation-filters="sRGB">
<feFlood flood-opacity="0" result="BackgroundImageFix"/>
<feColorMatrix in="SourceAlpha" type="matrix" values="0 0 0 0 0 0 0 0 0 0 0 0 0 0 0 0 0 0 127 0" result="hardAlpha"/>
<feOffset dy="4"/>
<feGaussianBlur stdDeviation="2"/>
<feComposite in2="hardAlpha" operator="out"/>
<feColorMatrix type="matrix" values="0 0 0 0 0 0 0 0 0 0 0 0 0 0 0 0 0 0 0.25 0"/>
<feBlend mode="normal" in2="BackgroundImageFix" result="effect1_dropShadow_3691_64"/>
<feBlend mode="normal" in="SourceGraphic" in2="effect1_dropShadow_3691_64" result="shape"/>
</filter>
</defs>
</svg>
