<svg width="64" height="64" viewBox="0 0 64 64" fill="none" xmlns="http://www.w3.org/2000/svg">
<path d="M44.8436 22.3768C45.1245 22.4108 45.4073 22.3318 45.6299 22.1572C45.8525 21.9826 45.9966 21.7267 46.0306 21.4459C47.0509 13.0013 40.4449 5.6001 31.9999 5.6001C24.2066 5.6001 17.8664 11.9404 17.8664 19.7336C17.8664 27.5268 24.2066 33.8671 31.9999 33.8671C36.6271 33.8671 40.9684 31.5959 43.6127 27.7916C43.7742 27.5593 43.8367 27.2724 43.7866 26.9939C43.7366 26.7155 43.5779 26.4684 43.3456 26.3069C43.1133 26.1454 42.8264 26.0829 42.548 26.1329C42.2695 26.183 42.0224 26.3417 41.8609 26.574C39.6152 29.8048 35.9289 31.7338 31.9999 31.7338C25.383 31.7338 19.9997 26.3505 19.9997 19.7336C19.9997 13.1167 25.383 7.73346 31.9999 7.73346C39.1525 7.73346 44.7823 14.0003 43.9127 21.1899C43.8787 21.4707 43.9578 21.7536 44.1323 21.9762C44.3069 22.1988 44.5628 22.3429 44.8436 22.3768Z" fill="#006699"/>
<path d="M38.4556 49.0637H38.228V38.4634C45.9909 35.8758 51.7333 28.5513 51.7333 19.7336C51.7333 8.85251 42.8808 0 31.9998 0C21.1187 0 12.2662 8.85251 12.2662 19.7336C12.2662 30.4266 20.7652 39.148 31.414 39.4586C32.0043 39.4769 32.4943 39.0124 32.5114 38.4235C32.5196 38.1408 32.4152 37.8663 32.2211 37.6605C32.027 37.4547 31.7591 37.3345 31.4763 37.3262C21.9007 37.0467 14.3997 29.3192 14.3997 19.7336C14.3997 10.0288 22.2951 2.13336 31.9999 2.13336C41.7047 2.13336 49.6001 10.0288 49.6001 19.7336C49.6001 27.5426 44.364 34.4999 36.867 36.6525C36.6445 36.7164 36.4488 36.851 36.3094 37.0359C36.1701 37.2209 36.0948 37.4461 36.0947 37.6777V50.1304C36.0947 50.4133 36.2071 50.6846 36.4072 50.8846C36.6072 51.0847 36.8785 51.197 37.1614 51.197H38.4557C38.9444 51.197 39.2329 51.743 38.9573 52.1468L32.5016 61.6025C32.261 61.955 31.74 61.9562 31.4985 61.6025L25.0429 52.1468C24.7674 51.7432 25.0555 51.197 25.5445 51.197H26.8388C27.1217 51.197 27.393 51.0847 27.593 50.8846C27.7931 50.6846 27.9054 50.4133 27.9054 50.1304V43.4887C27.9054 43.2058 27.7931 42.9345 27.593 42.7344C27.393 42.5344 27.1217 42.422 26.8388 42.422C26.5559 42.422 26.2845 42.5344 26.0845 42.7344C25.8845 42.9345 25.7721 43.2058 25.7721 43.4887V49.0637H25.5445C23.3448 49.0637 22.0399 51.5318 23.281 53.3497L29.7367 62.8055C30.8223 64.3956 33.1744 64.4007 34.2635 62.8055L40.7192 53.3497C41.9593 51.533 40.6568 49.0637 38.4556 49.0637Z" fill="#006699"/>
<path d="M17.4278 44.3845V37.8731C17.4278 37.5902 17.3155 37.3188 17.1154 37.1188C16.9154 36.9188 16.6441 36.8064 16.3612 36.8064C16.0782 36.8064 15.8069 36.9188 15.6069 37.1188C15.4069 37.3188 15.2945 37.5902 15.2945 37.8731V45.3515C15.2945 45.6344 15.4069 45.9058 15.6069 46.1058C15.8069 46.3058 16.0782 46.4182 16.3612 46.4182H16.7033C17.1324 46.4182 17.3858 46.8977 17.1437 47.2522L12.9028 53.4638C12.6907 53.7745 12.2343 53.7749 12.0219 53.4638L7.78104 47.2522C7.53917 46.898 7.79211 46.4182 8.22145 46.4182H8.56359C8.84649 46.4182 9.1178 46.3058 9.31784 46.1058C9.51788 45.9058 9.63027 45.6344 9.63027 45.3515V27.7337C9.63027 27.4508 9.51788 27.1795 9.31784 26.9795C9.1178 26.7794 8.84649 26.667 8.56359 26.667C8.28069 26.667 8.00937 26.7794 7.80933 26.9795C7.60929 27.1795 7.49691 27.4508 7.49691 27.7337V44.3845C5.75689 44.8737 4.98514 46.9408 6.01916 48.4552L10.26 54.6667C11.3162 56.2138 13.605 56.2189 14.6647 54.6667L18.9056 48.4552C19.9392 46.9413 19.1687 44.8738 17.4278 44.3845ZM56.5026 44.3845V27.7337C56.5026 27.4508 56.3902 27.1795 56.1902 26.9795C55.9901 26.7794 55.7188 26.667 55.4359 26.667C55.153 26.667 54.8817 26.7794 54.6816 26.9795C54.4816 27.1795 54.3692 27.4508 54.3692 27.7337V45.3515C54.3692 45.6344 54.4816 45.9058 54.6816 46.1058C54.8817 46.3058 55.153 46.4182 55.4359 46.4182H55.778C56.207 46.4182 56.4606 46.8977 56.2184 47.2522L51.9776 53.4638C51.7655 53.7745 51.3091 53.7749 51.0966 53.4638L46.8558 47.2522C46.6138 46.8978 46.8669 46.4182 47.2962 46.4182H47.6383C47.9212 46.4182 48.1926 46.3058 48.3926 46.1058C48.5926 45.9058 48.705 45.6344 48.705 45.3515V37.8731C48.705 37.5902 48.5926 37.3188 48.3926 37.1188C48.1926 36.9188 47.9212 36.8064 47.6383 36.8064C47.3554 36.8064 47.0841 36.9188 46.8841 37.1188C46.684 37.3188 46.5717 37.5902 46.5717 37.8731V44.3845C44.8272 44.8749 44.062 46.9438 45.0939 48.4552L49.3348 54.6667C50.391 56.2141 52.6799 56.2188 53.7395 54.6667L57.9803 48.4552C59.0161 46.9381 58.2401 44.8729 56.5026 44.3845ZM31.9999 29.8671C32.2828 29.8671 32.5541 29.7547 32.7541 29.5547C32.9542 29.3546 33.0666 29.0833 33.0666 28.8004V27.3724C35.4183 26.9689 37.1895 25.2658 37.1895 23.2318C37.1895 20.032 34.3095 19.448 32.2067 19.0215C29.7104 18.5152 28.9332 18.1569 28.9332 16.902C28.9332 15.7646 30.3352 14.8037 31.9947 14.8037C33.1276 14.8037 34.1679 15.2428 34.7098 15.9496C34.8826 16.1721 35.1364 16.3172 35.4158 16.3533C35.6953 16.3893 35.9776 16.3133 36.2012 16.1419C36.4248 15.9705 36.5715 15.7176 36.6093 15.4384C36.6471 15.1592 36.5729 14.8764 36.4029 14.6517C35.6439 13.6617 34.4407 12.9914 33.0666 12.7605V11.3335C33.0666 11.0506 32.9542 10.7793 32.7541 10.5793C32.5541 10.3792 32.2828 10.2668 31.9999 10.2668C31.717 10.2668 31.4457 10.3792 31.2456 10.5793C31.0456 10.7793 30.9332 11.0506 30.9332 11.3335V12.7595C28.5761 13.1598 26.7998 14.865 26.7998 16.902C26.7998 20.1018 29.6799 20.6858 31.7827 21.1123C34.279 21.6186 35.0562 21.9769 35.0562 23.2318C35.0562 24.3692 33.6542 25.3301 31.9947 25.3301C30.8617 25.3301 29.8215 24.891 29.2796 24.1842C29.1068 23.9617 28.8529 23.8166 28.5735 23.7805C28.2941 23.7445 28.0117 23.8205 27.7881 23.9919C27.5645 24.1633 27.4178 24.4162 27.3801 24.6954C27.3423 24.9746 27.4165 25.2574 27.5865 25.4821C28.3473 26.4746 29.5546 27.1459 30.9332 27.3753V28.8004C30.9332 29.0833 31.0456 29.3546 31.2456 29.5547C31.4457 29.7547 31.717 29.8671 31.9999 29.8671Z" fill="#006699"/>
</svg>
