<svg width="65" height="30" viewBox="0 0 65 30" fill="none" xmlns="http://www.w3.org/2000/svg">
<path d="M0.928 29V22.856H5.296V29H0.928ZM36.6828 14.936C36.6828 17.752 36.1388 20.264 35.0508 22.472C33.9948 24.648 32.5388 26.36 30.6828 27.608C28.8588 28.856 26.7628 29.48 24.3948 29.48C22.0588 29.48 19.9628 28.856 18.1068 27.608C16.2508 26.36 14.7788 24.648 13.6908 22.472C12.6348 20.264 12.1068 17.752 12.1068 14.936C12.1068 12.12 12.6348 9.624 13.6908 7.448C14.7788 5.24 16.2508 3.512 18.1068 2.264C19.9628 0.983999 22.0588 0.344 24.3948 0.344C26.7628 0.344 28.8588 0.983999 30.6828 2.264C32.5388 3.512 33.9948 5.24 35.0508 7.448C36.1388 9.624 36.6828 12.12 36.6828 14.936ZM31.3068 14.936C31.3068 13.016 31.0188 11.336 30.4428 9.896C29.8668 8.424 29.0508 7.288 27.9948 6.488C26.9388 5.656 25.7388 5.24 24.3948 5.24C23.0188 5.24 21.8028 5.656 20.7468 6.488C19.6908 7.288 18.8588 8.424 18.2508 9.896C17.6748 11.336 17.3868 13.016 17.3868 14.936C17.3868 16.856 17.6748 18.536 18.2508 19.976C18.8588 21.416 19.6908 22.552 20.7468 23.384C21.8028 24.184 23.0188 24.584 24.3948 24.584C25.7388 24.584 26.9228 24.184 27.9468 23.384C29.0028 22.552 29.8188 21.416 30.3948 19.976C31.0028 18.536 31.3068 16.856 31.3068 14.936ZM42.5031 29C42.5031 27.656 42.6151 26.424 42.8391 25.304C43.0631 24.152 43.4471 23.064 43.9911 22.04C44.5671 21.016 45.3511 20.056 46.3431 19.16C47.3671 18.232 48.6631 17.352 50.2311 16.52C51.3511 15.88 52.4071 15.32 53.3991 14.84C54.3911 14.328 55.2711 13.832 56.0391 13.352C56.8071 12.84 57.3991 12.296 57.8151 11.72C58.2631 11.144 58.4871 10.488 58.4871 9.752C58.4871 9.048 58.2951 8.392 57.9111 7.784C57.5271 7.176 56.9511 6.696 56.1831 6.344C55.4151 5.96 54.4871 5.768 53.3991 5.768C52.5351 5.768 51.7351 5.88 50.9991 6.104C50.2951 6.328 49.6391 6.632 49.0311 7.016C48.4551 7.368 47.9271 7.768 47.4471 8.216C46.9671 8.632 46.5511 9.048 46.1991 9.464L42.8871 5.672C43.2071 5.288 43.7031 4.856 44.3751 4.376C45.0791 3.864 45.9111 3.368 46.8711 2.888C47.8631 2.376 48.9831 1.96 50.2311 1.64C51.4791 1.288 52.8391 1.112 54.3111 1.112C56.3911 1.112 58.1671 1.464 59.6391 2.168C61.1111 2.84 62.2311 3.784 62.9991 5C63.7991 6.184 64.1991 7.528 64.1991 9.032C64.1991 10.216 63.9591 11.256 63.4791 12.152C63.0311 13.048 62.4391 13.848 61.7031 14.552C60.9671 15.224 60.1831 15.816 59.3511 16.328C58.5511 16.808 57.7991 17.24 57.0951 17.624C55.8471 18.232 54.7591 18.792 53.8311 19.304C52.9351 19.816 52.1671 20.328 51.5271 20.84C50.8871 21.32 50.3591 21.832 49.9431 22.376C49.5271 22.888 49.1751 23.512 48.8871 24.248H64.7271V29H42.5031Z" fill="black"/>
</svg>
