<svg width="66" height="37" viewBox="0 0 66 37" fill="none" xmlns="http://www.w3.org/2000/svg">
<path d="M0.928 29V22.856H5.296V29H0.928ZM36.6828 14.936C36.6828 17.752 36.1388 20.264 35.0508 22.472C33.9948 24.648 32.5388 26.36 30.6828 27.608C28.8588 28.856 26.7628 29.48 24.3948 29.48C22.0588 29.48 19.9628 28.856 18.1068 27.608C16.2508 26.36 14.7788 24.648 13.6908 22.472C12.6348 20.264 12.1068 17.752 12.1068 14.936C12.1068 12.12 12.6348 9.624 13.6908 7.448C14.7788 5.24 16.2508 3.512 18.1068 2.264C19.9628 0.983999 22.0588 0.344 24.3948 0.344C26.7628 0.344 28.8588 0.983999 30.6828 2.264C32.5388 3.512 33.9948 5.24 35.0508 7.448C36.1388 9.624 36.6828 12.12 36.6828 14.936ZM31.3068 14.936C31.3068 13.016 31.0188 11.336 30.4428 9.896C29.8668 8.424 29.0508 7.288 27.9948 6.488C26.9388 5.656 25.7388 5.24 24.3948 5.24C23.0188 5.24 21.8028 5.656 20.7468 6.488C19.6908 7.288 18.8588 8.424 18.2508 9.896C17.6748 11.336 17.3868 13.016 17.3868 14.936C17.3868 16.856 17.6748 18.536 18.2508 19.976C18.8588 21.416 19.6908 22.552 20.7468 23.384C21.8028 24.184 23.0188 24.584 24.3948 24.584C25.7388 24.584 26.9228 24.184 27.9468 23.384C29.0028 22.552 29.8188 21.416 30.3948 19.976C31.0028 18.536 31.3068 16.856 31.3068 14.936ZM53.1591 36.152C50.6951 36.152 48.4871 35.592 46.5351 34.472C44.5831 33.384 43.0951 31.896 42.0711 30.008L45.2391 26.984C46.1351 28.36 47.2871 29.448 48.6951 30.248C50.1031 31.08 51.6071 31.496 53.2071 31.496C54.5191 31.496 55.6871 31.208 56.7111 30.632C57.7351 30.088 58.5351 29.32 59.1111 28.328C59.7191 27.304 60.0231 26.136 60.0231 24.824C60.0231 23.544 59.7351 22.424 59.1591 21.464C58.5831 20.472 57.8151 19.72 56.8551 19.208C55.8951 18.664 54.7911 18.392 53.5431 18.392C52.3271 18.392 51.1911 18.664 50.1351 19.208C49.0791 19.752 48.2151 20.52 47.5431 21.512H42.8871L46.7751 1.592H63.4311V6.44H50.6151L48.8871 15.752C49.4311 15.176 50.1671 14.712 51.0951 14.36C52.0231 13.976 53.0791 13.784 54.2631 13.784C56.4071 13.784 58.3111 14.264 59.9751 15.224C61.6711 16.152 62.9991 17.432 63.9591 19.064C64.9511 20.696 65.4471 22.584 65.4471 24.728C65.4471 27 64.9031 28.984 63.8151 30.68C62.7271 32.408 61.2551 33.752 59.3991 34.712C57.5431 35.672 55.4631 36.152 53.1591 36.152Z" fill="black"/>
</svg>
