<svg width="68" height="36" viewBox="0 0 68 36" fill="none" xmlns="http://www.w3.org/2000/svg">
<path d="M0.928 35V28.856H5.296V35H0.928ZM36.6828 20.936C36.6828 23.752 36.1388 26.264 35.0508 28.472C33.9948 30.648 32.5388 32.36 30.6828 33.608C28.8588 34.856 26.7628 35.48 24.3948 35.48C22.0588 35.48 19.9628 34.856 18.1068 33.608C16.2508 32.36 14.7788 30.648 13.6908 28.472C12.6348 26.264 12.1068 23.752 12.1068 20.936C12.1068 18.12 12.6348 15.624 13.6908 13.448C14.7788 11.24 16.2508 9.512 18.1068 8.264C19.9628 6.984 22.0588 6.344 24.3948 6.344C26.7628 6.344 28.8588 6.984 30.6828 8.264C32.5388 9.512 33.9948 11.24 35.0508 13.448C36.1388 15.624 36.6828 18.12 36.6828 20.936ZM31.3068 20.936C31.3068 19.016 31.0188 17.336 30.4428 15.896C29.8668 14.424 29.0508 13.288 27.9948 12.488C26.9388 11.656 25.7388 11.24 24.3948 11.24C23.0188 11.24 21.8028 11.656 20.7468 12.488C19.6908 13.288 18.8588 14.424 18.2508 15.896C17.6748 17.336 17.3868 19.016 17.3868 20.936C17.3868 22.856 17.6748 24.536 18.2508 25.976C18.8588 27.416 19.6908 28.552 20.7468 29.384C21.8028 30.184 23.0188 30.584 24.3948 30.584C25.7388 30.584 26.9228 30.184 27.9468 29.384C29.0028 28.552 29.8188 27.416 30.3948 25.976C31.0028 24.536 31.3068 22.856 31.3068 20.936ZM67.6551 23.672C67.6551 25.848 67.1111 27.832 66.0231 29.624C64.9671 31.416 63.4951 32.84 61.6071 33.896C59.7511 34.952 57.6711 35.48 55.3671 35.48C52.8711 35.48 50.6791 34.888 48.7911 33.704C46.9351 32.488 45.4791 30.744 44.4231 28.472C43.3991 26.2 42.8871 23.496 42.8871 20.36C42.8871 16.008 43.4151 12.376 44.4711 9.464C45.5591 6.552 47.0791 4.36 49.0311 2.888C50.9831 1.416 53.2711 0.679998 55.8951 0.679998C58.0711 0.679998 60.0551 1.192 61.8471 2.216C63.6711 3.208 65.1431 4.6 66.2631 6.392L63.1431 9.656C62.4071 8.312 61.3831 7.256 60.0711 6.488C58.7911 5.688 57.3671 5.288 55.7991 5.288C54.2311 5.288 52.8391 5.752 51.6231 6.68C50.4391 7.576 49.5111 8.888 48.8391 10.616C48.1991 12.344 47.8631 14.44 47.8311 16.904C48.3111 15.944 48.9351 15.128 49.7031 14.456C50.5031 13.752 51.4311 13.208 52.4871 12.824C53.5431 12.44 54.6631 12.248 55.8471 12.248C58.0871 12.248 60.0871 12.76 61.8471 13.784C63.6391 14.808 65.0471 16.184 66.0711 17.912C67.1271 19.608 67.6551 21.528 67.6551 23.672ZM55.3671 30.968C56.6791 30.968 57.8791 30.648 58.9671 30.008C60.0871 29.336 60.9671 28.44 61.6071 27.32C62.2791 26.2 62.6151 24.984 62.6151 23.672C62.6151 22.36 62.2791 21.16 61.6071 20.072C60.9671 18.984 60.1031 18.12 59.0151 17.48C57.9271 16.808 56.7111 16.472 55.3671 16.472C54.0871 16.472 52.8871 16.808 51.7671 17.48C50.6471 18.12 49.7511 18.984 49.0791 20.072C48.4391 21.16 48.1191 22.36 48.1191 23.672C48.1191 24.984 48.4551 26.2 49.1271 27.32C49.7991 28.408 50.6791 29.288 51.7671 29.96C52.8871 30.632 54.0871 30.968 55.3671 30.968Z" fill="black"/>
</svg>
