<svg width="40" height="41" viewBox="0 0 40 41" fill="none" xmlns="http://www.w3.org/2000/svg">
<path d="M8.39648 33.7006V12.0339H15.8332V6.58393L19.9998 2.6106L24.1665 6.5856V18.7006H31.6032V33.7006H8.39648ZM10.0632 32.0339H15.0632V27.0339H10.0632V32.0339ZM10.0632 25.3673H15.0632V20.3673H10.0632V25.3673ZM10.0632 18.7006H15.0632V13.7006H10.0632V18.7006ZM17.4998 32.0339H22.4998V27.0339H17.4998V32.0339ZM17.4998 25.3673H22.4998V20.3673H17.4998V25.3673ZM17.4998 18.7006H22.4998V13.7006H17.4998V18.7006ZM17.4998 12.0339H22.4998V7.03393H17.4998V12.0339ZM24.9365 32.0339H29.9365V27.0339H24.9365V32.0339ZM24.9365 25.3673H29.9365V20.3673H24.9365V25.3673Z" fill="white"/>
</svg>
