<svg width="52" height="65" viewBox="0 0 52 65" fill="none" xmlns="http://www.w3.org/2000/svg">
<path d="M0.978378 58.3852L8.20638 39.3792C7.49224 38.9521 6.87154 38.3855 6.38138 37.7132C5.85467 36.9894 5.49411 36.1583 5.32541 35.2791C5.15671 34.4 5.18401 33.4945 5.40538 32.6272C5.59256 31.8689 5.56116 31.0731 5.31482 30.3319C5.06847 29.5907 4.61724 28.9345 4.01338 28.4392C3.31409 27.8661 2.7509 27.1449 2.36452 26.3275C1.97815 25.5101 1.77827 24.6171 1.77932 23.713C1.78037 22.809 1.98234 21.9164 2.37061 21.1C2.75888 20.2835 3.32376 19.5635 4.02438 18.9922C4.62611 18.495 5.07484 17.8377 5.3187 17.0962C5.56255 16.3548 5.59156 15.5594 5.40238 14.8022C5.18256 13.9361 5.15631 13.0323 5.32553 12.1549C5.49474 11.2776 5.85524 10.4483 6.38138 9.72616C6.92053 8.98449 7.61659 8.37082 8.41997 7.92886C9.22335 7.48689 10.1143 7.2275 11.0294 7.16916C11.8167 7.1162 12.5738 6.84525 13.2159 6.38662C13.858 5.92798 14.3599 5.29973 14.6654 4.57216C15.0073 3.73934 15.5267 2.99113 16.1875 2.37973C16.8483 1.76832 17.6346 1.30844 18.4914 1.03216C19.3606 0.747928 20.2814 0.656691 21.1895 0.764807C22.0976 0.872923 22.9712 1.17779 23.7494 1.65816C24.4279 2.07277 25.2077 2.29215 26.0029 2.29215C26.7981 2.29215 27.5778 2.07277 28.2564 1.65816C29.0346 1.17779 29.9082 0.872923 30.8163 0.764807C31.7244 0.656691 32.6451 0.747928 33.5144 1.03216C34.371 1.30863 35.157 1.76859 35.8176 2.37998C36.4782 2.99137 36.9975 3.73948 37.3394 4.57216C37.6457 5.30102 38.1489 5.93016 38.7927 6.38904C39.4366 6.84792 40.1955 7.1184 40.9844 7.17016C41.8982 7.22917 42.7877 7.48891 43.5897 7.93086C44.3917 8.37282 45.0864 8.98614 45.6244 9.72716C46.1509 10.451 46.5113 11.2822 46.6798 12.1613C46.8484 13.0404 46.8209 13.9459 46.5994 14.8132C46.4121 15.5716 46.4435 16.3675 46.6898 17.1089C46.9362 17.8502 47.3874 18.5066 47.9914 19.0022C48.6904 19.5753 49.2534 20.2965 49.6396 21.1138C50.0257 21.9312 50.2255 22.8241 50.2243 23.728C50.2232 24.6319 50.0212 25.5243 49.6329 26.3407C49.2447 27.157 48.6799 27.8768 47.9794 28.4482C47.3778 28.9454 46.9293 29.6028 46.6856 30.3442C46.4419 31.0857 46.4131 31.881 46.6024 32.6382C46.8222 33.5042 46.8484 34.4081 46.6792 35.2854C46.51 36.1627 46.1495 36.992 45.6234 37.7142C45.1331 38.3862 44.5124 38.9524 43.7984 39.3792L51.0264 58.3852C51.0941 58.5638 51.1092 58.7581 51.07 58.945C51.0308 59.132 50.9388 59.3038 50.805 59.4401C50.6712 59.5764 50.5011 59.6716 50.3149 59.7143C50.1288 59.757 49.9342 59.7455 49.7544 59.6812L41.8814 56.8512L37.8804 64.1982C37.7945 64.356 37.6676 64.4879 37.5131 64.5797C37.3585 64.6716 37.1821 64.7201 37.0024 64.7202L36.9354 64.7182C36.7444 64.7054 36.5611 64.6382 36.4073 64.5244C36.2534 64.4106 36.1355 64.255 36.0674 64.0762L29.3004 46.2912C28.9371 46.1538 28.5872 45.983 28.2554 45.7812C27.5769 45.3668 26.7973 45.1476 26.0024 45.1476C25.2074 45.1476 24.4278 45.3668 23.7494 45.7812C23.4182 45.9805 23.0694 46.1499 22.7074 46.2852L15.9374 64.0752C15.8693 64.254 15.7513 64.4096 15.5975 64.5234C15.4436 64.6372 15.2603 64.7044 15.0694 64.7172L15.0024 64.7192C14.8226 64.7191 14.6462 64.6706 14.4917 64.5787C14.3372 64.4869 14.2103 64.355 14.1244 64.1972L10.1244 56.8502L2.25038 59.6802C2.07052 59.7445 1.876 59.756 1.68981 59.7133C1.50362 59.6706 1.33357 59.5754 1.19976 59.4391C1.06595 59.3028 0.973995 59.131 0.934761 58.944C0.895527 58.7571 0.910664 58.5638 0.978378 58.3852ZM37.1624 61.3322L40.5334 55.1422C40.6475 54.9326 40.8328 54.7707 41.0558 54.6858C41.2788 54.6009 41.5248 54.5986 41.7494 54.6792L48.3844 57.0642L41.9404 40.1222C41.6227 40.1964 41.2997 40.2463 40.9744 40.2712C40.1871 40.3241 39.43 40.5951 38.7879 41.0537C38.1457 41.5123 37.6439 42.1406 37.3384 42.8682C36.9965 43.701 36.477 44.4492 35.8162 45.0606C35.1554 45.672 34.3692 46.1319 33.5124 46.4082C32.8942 46.6078 32.249 46.7111 31.5994 46.7142L37.1624 61.3322ZM29.3064 44.0802C29.8372 44.408 30.4333 44.6159 31.0528 44.6895C31.6724 44.7631 32.3005 44.7005 32.8934 44.5062C33.4737 44.3194 34.0063 44.0084 34.4542 43.5948C34.902 43.1812 35.2543 42.6749 35.4864 42.1112C35.9357 41.0368 36.6753 40.1089 37.6224 39.4314C38.5695 38.7538 39.6865 38.3535 40.8484 38.2752C41.4695 38.2353 42.0742 38.0591 42.6195 37.759C43.1648 37.459 43.6373 37.0425 44.0034 36.5392C44.3575 36.0524 44.5998 35.4935 44.713 34.9023C44.8262 34.3112 44.8076 33.7023 44.6584 33.1192C44.3796 31.9934 44.425 30.8118 44.7893 29.7108C45.1537 28.6098 45.8221 27.6343 46.7174 26.8972C47.1893 26.5116 47.5693 26.0258 47.83 25.475C48.0906 24.9241 48.2252 24.3222 48.2241 23.7128C48.2229 23.1034 48.086 22.502 47.8233 21.9521C47.5606 21.4023 47.1787 20.9179 46.7054 20.5342C45.8124 19.7951 45.1467 18.8185 44.785 17.7172C44.4233 16.6159 44.3805 15.4348 44.6614 14.3102C44.809 13.7283 44.8266 13.1211 44.7129 12.5317C44.5992 11.9423 44.3569 11.3853 44.0034 10.9002C43.6358 10.3958 43.1614 9.97874 42.6142 9.67867C42.067 9.37861 41.4603 9.20293 40.8374 9.16416C39.6776 9.08423 38.563 8.68319 37.6181 8.00591C36.6733 7.32862 35.9355 6.40181 35.4874 5.32916C35.2553 4.7651 34.9028 4.25853 34.4546 3.84485C34.0064 3.43117 33.4732 3.12037 32.8924 2.93416C32.2993 2.73999 31.671 2.67752 31.0513 2.75109C30.4317 2.82467 29.8355 3.03252 29.3044 3.36016C28.3094 3.96769 27.1662 4.28913 26.0004 4.28913C24.8346 4.28913 23.6914 3.96769 22.6964 3.36016C22.1654 3.0326 21.5694 2.8248 20.9499 2.75122C20.3304 2.67765 19.7023 2.74008 19.1094 2.93416C18.5288 3.12085 17.9959 3.43195 17.5478 3.84577C17.0998 4.25959 16.7475 4.76616 16.5154 5.33016C16.0662 6.40418 15.3269 7.33192 14.3802 8.00944C13.4335 8.68696 12.3169 9.08749 11.1554 9.16616C10.5342 9.20584 9.92937 9.38187 9.38391 9.68173C8.83845 9.9816 8.36574 10.3979 7.99938 10.9012C7.64527 11.3879 7.40296 11.9468 7.28973 12.538C7.17651 13.1291 7.19517 13.738 7.34438 14.3212C7.62317 15.4469 7.57777 16.6285 7.21342 17.7295C6.84908 18.8305 6.18065 19.806 5.28538 20.5432C4.81348 20.9287 4.43341 21.4145 4.17278 21.9654C3.91215 22.5162 3.77752 23.1181 3.77867 23.7275C3.77982 24.3369 3.91672 24.9383 4.17942 25.4882C4.44212 26.038 4.82402 26.5224 5.29737 26.9062C6.19034 27.6453 6.85609 28.6218 7.21776 29.7231C7.57943 30.8244 7.62229 32.0055 7.34138 33.1302C7.19371 33.712 7.17612 34.3192 7.28985 34.9086C7.40358 35.498 7.64584 36.055 7.99938 36.5402C8.36709 37.0443 8.84146 37.4612 9.38869 37.7611C9.93592 38.061 10.5426 38.2365 11.1654 38.2752C12.3252 38.3552 13.44 38.7564 14.3848 39.4338C15.3297 40.1113 16.0674 41.0383 16.5154 42.1112C16.7475 42.6752 17.1 43.1818 17.5482 43.5955C17.9964 44.0091 18.5296 44.3199 19.1104 44.5062C19.7033 44.7009 20.3317 44.7637 20.9515 44.6901C21.5713 44.6166 22.1675 44.4084 22.6984 44.0802C23.6934 43.4726 24.8366 43.1512 26.0024 43.1512C27.1682 43.1512 28.3114 43.4726 29.3064 44.0802ZM10.2534 54.6792C10.478 54.5986 10.724 54.6009 10.947 54.6858C11.17 54.7707 11.3553 54.9326 11.4694 55.1422L14.8394 61.3322L20.4024 46.7162C19.7531 46.7126 19.1082 46.609 18.4904 46.4092C17.6334 46.1326 16.847 45.6726 16.1861 45.061C15.5251 44.4495 15.0055 43.7011 14.6634 42.8682C14.3574 42.1392 13.8544 41.51 13.2107 41.0511C12.5671 40.5922 11.8082 40.3218 11.0194 40.2702C10.6971 40.2454 10.3771 40.1959 10.0624 40.1222L3.61838 57.0632L10.2534 54.6792Z" fill="#006699"/>
<path d="M11.0024 23.7201C11.0024 20.7534 11.8822 17.8533 13.5304 15.3865C15.1786 12.9198 17.5213 10.9972 20.2622 9.86191C23.0031 8.72659 26.0191 8.42954 28.9288 9.00832C31.8385 9.5871 34.5112 11.0157 36.609 13.1135C38.7068 15.2113 40.1354 17.884 40.7142 20.7937C41.293 23.7035 40.9959 26.7195 39.8606 29.4604C38.7253 32.2012 36.8027 34.5439 34.336 36.1921C31.8693 37.8404 28.9692 38.7201 26.0024 38.7201C22.0256 38.7156 18.2129 37.1338 15.4008 34.3217C12.5887 31.5097 11.0069 27.697 11.0024 23.7201ZM26.0024 36.7201C28.5736 36.7201 31.087 35.9577 33.2248 34.5292C35.3627 33.1007 37.0289 31.0704 38.0129 28.695C38.9968 26.3195 39.2543 23.7057 38.7526 21.1839C38.251 18.6622 37.0129 16.3458 35.1948 14.5277C33.3767 12.7096 31.0604 11.4715 28.5386 10.9699C26.0169 10.4683 23.403 10.7257 21.0276 11.7097C18.6521 12.6936 16.6218 14.3598 15.1933 16.4977C13.7649 18.6355 13.0024 21.1489 13.0024 23.7201C13.0064 27.1667 14.3773 30.471 16.8144 32.9081C19.2515 35.3452 22.5558 36.7161 26.0024 36.7201Z" fill="#006699"/>
<path d="M18.0493 20.4041L22.9253 19.6961L25.1053 15.2781C25.1972 15.1219 25.3282 14.9925 25.4854 14.9025C25.6427 14.8126 25.8207 14.7653 26.0018 14.7653C26.183 14.7653 26.361 14.8126 26.5183 14.9025C26.6755 14.9925 26.8065 15.1219 26.8983 15.2781L29.0793 19.6961L33.9553 20.4041C34.1401 20.4308 34.3137 20.5086 34.4566 20.6289C34.5994 20.7491 34.7057 20.907 34.7634 21.0845C34.8212 21.262 34.8281 21.4522 34.7834 21.6334C34.7386 21.8147 34.6441 21.9798 34.5103 22.1101L30.9803 25.5501L31.8133 30.4051C31.8447 30.5889 31.8241 30.7778 31.7538 30.9504C31.6835 31.1231 31.5664 31.2727 31.4156 31.3823C31.2648 31.4919 31.0863 31.5572 30.9004 31.5708C30.7145 31.5843 30.5285 31.5457 30.3633 31.4591L26.0023 29.1671L21.6413 31.4591C21.4762 31.5457 21.2902 31.5843 21.1043 31.5708C20.9183 31.5572 20.7399 31.4919 20.5891 31.3823C20.4383 31.2727 20.3212 31.1231 20.2509 30.9504C20.1806 30.7778 20.16 30.5889 20.1913 30.4051L21.0243 25.5491L17.4943 22.1101C17.3606 21.9798 17.266 21.8147 17.2213 21.6334C17.1766 21.4522 17.1835 21.262 17.2412 21.0845C17.299 20.907 17.4053 20.7491 17.5481 20.6289C17.6909 20.5086 17.8646 20.4308 18.0493 20.4041ZM22.7963 24.4841C22.9122 24.5974 22.9989 24.7371 23.0489 24.8912C23.0989 25.0454 23.1107 25.2094 23.0833 25.3691L22.5043 28.7461L25.5373 27.1521C25.6808 27.0768 25.8403 27.0374 26.0023 27.0374C26.1643 27.0374 26.3239 27.0768 26.4673 27.1521L29.5003 28.7461L28.9203 25.3691C28.8931 25.2093 28.9051 25.0453 28.9552 24.8911C29.0054 24.7369 29.0923 24.5973 29.2083 24.4841L31.6623 22.0921L28.2723 21.5991C28.1117 21.576 27.9591 21.5142 27.8277 21.4189C27.6963 21.3236 27.5901 21.1977 27.5183 21.0521L26.0023 17.9801L24.4853 21.0521C24.4139 21.1976 24.3081 21.3235 24.177 21.419C24.046 21.5145 23.8937 21.5766 23.7333 21.6001L20.3423 22.0921L22.7963 24.4841Z" fill="#006699"/>
</svg>
