<svg width="56" height="53" viewBox="0 0 56 53" fill="none" xmlns="http://www.w3.org/2000/svg">
<path d="M50.966 16.6859L51.808 15.844L51.833 15.8689C51.9789 16.0152 52.1523 16.1312 52.3431 16.2103C52.5339 16.2895 52.7384 16.3302 52.945 16.3302C53.1516 16.3302 53.3561 16.2895 53.547 16.2103C53.7378 16.1312 53.9111 16.0152 54.057 15.8689L55.358 14.5669C55.5041 14.421 55.62 14.2476 55.6991 14.0568C55.7782 13.866 55.8189 13.6615 55.8189 13.4549C55.8189 13.2484 55.7782 13.0439 55.6991 12.8531C55.62 12.6623 55.5041 12.4889 55.358 12.3429L51.945 8.92895C51.6455 8.64316 51.2475 8.48371 50.8335 8.48371C50.4196 8.48371 50.0215 8.64316 49.722 8.92895L48.42 10.2309C48.2739 10.3769 48.158 10.5503 48.0789 10.7411C47.9999 10.9319 47.9592 11.1364 47.9592 11.3429C47.9592 11.5495 47.9999 11.754 48.0789 11.9448C48.158 12.1356 48.2739 12.309 48.42 12.4549L48.445 12.4799L47.555 13.3699C44.5144 10.9822 40.8925 9.44753 37.062 8.92395V6.33595H38.747C39.2501 6.33568 39.7324 6.13574 40.0881 5.78004C40.4438 5.42434 40.6438 4.94198 40.644 4.43895V2.29395C40.6435 1.79109 40.4434 1.30899 40.0878 0.953506C39.7321 0.598024 39.2499 0.398214 38.747 0.397949H29.44C28.9373 0.398479 28.4554 0.598406 28.0999 0.95386C27.7445 1.30931 27.5445 1.79126 27.544 2.29395V4.43895C27.5443 4.94181 27.7441 5.42401 28.0996 5.77969C28.4551 6.13536 28.9372 6.33542 29.44 6.33595H31.126V8.92595C29.9687 9.07982 28.8257 9.32661 27.708 9.66395C27.4543 9.74139 27.2418 9.91644 27.1172 10.1506C26.9926 10.3847 26.9661 10.6588 27.0435 10.9124C27.121 11.1661 27.296 11.3787 27.5301 11.5033C27.7643 11.6279 28.0383 11.6544 28.292 11.577C31.6565 10.5496 35.2334 10.4337 38.6574 11.2411C42.0814 12.0484 45.2297 13.7501 47.7809 16.1723C50.332 18.5945 52.1946 21.6504 53.1783 25.0279C54.162 28.4054 54.2316 31.9835 53.38 35.3968C52.5284 38.81 50.7862 41.9361 48.3312 44.4557C45.8762 46.9753 42.7964 48.7981 39.4064 49.738C36.0165 50.6779 32.4378 50.7013 29.0358 49.8056C25.6339 48.9099 22.5306 47.1273 20.043 44.6399C19.9508 44.5444 19.8404 44.4683 19.7184 44.4158C19.5964 44.3634 19.4652 44.3359 19.3324 44.3347C19.1996 44.3335 19.068 44.3588 18.9451 44.4091C18.8222 44.4594 18.7105 44.5337 18.6166 44.6276C18.5227 44.7214 18.4485 44.8331 18.3982 44.956C18.3479 45.0789 18.3226 45.2106 18.3238 45.3434C18.3249 45.4761 18.3525 45.6073 18.4049 45.7294C18.4573 45.8514 18.5335 45.9617 18.629 46.0539C22.5999 50.0317 27.95 52.3277 33.5688 52.4652C39.1876 52.6028 44.6437 50.5715 48.8044 46.7928C52.9652 43.0142 55.5112 37.7785 55.9139 32.1724C56.3165 26.5663 54.544 21.0205 50.966 16.6859ZM50.833 10.6459L53.643 13.4549L52.945 14.153L50.135 11.3429L50.833 10.6459ZM49.858 13.8939L50.394 14.4289L49.621 15.2029C49.443 15.0229 49.26 14.8499 49.076 14.6769L49.858 13.8939ZM29.543 4.33595V2.39795H38.643V4.33595H29.543ZM33.125 8.75295V6.33595H35.062V8.74195C34.7396 8.72654 34.4168 8.7182 34.094 8.71695C33.77 8.71695 33.448 8.73895 33.125 8.75295Z" fill="#006699"/>
<path d="M47.084 43.501C50.5018 40.0726 52.4211 35.429 52.4211 30.588C52.4211 25.747 50.5018 21.1034 47.084 17.675C47.071 17.661 47.066 17.643 47.053 17.629C47.04 17.615 47.021 17.611 47.007 17.599C43.5802 14.1786 38.9357 12.2586 34.094 12.261C32.9935 12.2606 31.8951 12.3587 30.812 12.554C30.682 12.5765 30.5577 12.6245 30.4463 12.6952C30.3349 12.766 30.2386 12.8581 30.1629 12.9662C30.0873 13.0744 30.0338 13.1964 30.0056 13.3254C29.9773 13.4543 29.9749 13.5875 29.9984 13.7174C30.0219 13.8472 30.0708 13.9712 30.1424 14.082C30.2141 14.1929 30.3069 14.2885 30.4156 14.3633C30.5244 14.438 30.6468 14.4906 30.776 14.5178C30.9051 14.5451 31.0383 14.5465 31.168 14.522C31.8052 14.4121 32.4483 14.34 33.094 14.306V15.87C33.094 16.1352 33.1994 16.3896 33.3869 16.5771C33.5744 16.7646 33.8288 16.87 34.094 16.87C34.3592 16.87 34.6136 16.7646 34.8011 16.5771C34.9887 16.3896 35.094 16.1352 35.094 15.87V14.312C38.7231 14.531 42.1737 15.9617 44.893 18.375L43.794 19.474C43.6985 19.5662 43.6223 19.6766 43.5699 19.7986C43.5175 19.9206 43.4899 20.0518 43.4888 20.1846C43.4876 20.3174 43.5129 20.449 43.5632 20.5719C43.6135 20.6948 43.6877 20.8065 43.7816 20.9004C43.8755 20.9943 43.9872 21.0685 44.1101 21.1188C44.233 21.1691 44.3646 21.1944 44.4974 21.1932C44.6302 21.1921 44.7614 21.1645 44.8834 21.1121C45.0054 21.0597 45.1158 20.9835 45.208 20.888L46.307 19.789C48.7204 22.5086 50.1512 25.9595 50.37 29.589H48.812C48.5468 29.589 48.2924 29.6943 48.1049 29.8819C47.9174 30.0694 47.812 30.3238 47.812 30.589C47.812 30.8542 47.9174 31.1086 48.1049 31.2961C48.2924 31.4836 48.5468 31.589 48.812 31.589H50.37C50.151 35.2181 48.7203 38.6687 46.307 41.388L45.208 40.288C45.0204 40.1005 44.7659 39.9952 44.5007 39.9953C44.2354 39.9954 43.981 40.1008 43.7935 40.2885C43.606 40.4761 43.5007 40.7306 43.5008 40.9958C43.5009 41.2611 43.6064 41.5155 43.794 41.703L44.893 42.802C42.1734 45.2154 38.7225 46.6461 35.093 46.865V45.307C35.093 45.0418 34.9877 44.7874 34.8001 44.5999C34.6126 44.4123 34.3582 44.307 34.093 44.307C33.8278 44.307 33.5734 44.4123 33.3859 44.5999C33.1984 44.7874 33.093 45.0418 33.093 45.307V46.875C29.7653 46.6867 26.5776 45.4724 23.968 43.399C23.8656 43.3127 23.7469 43.2479 23.6189 43.2084C23.491 43.1689 23.3564 43.1555 23.2232 43.169C23.0899 43.1825 22.9608 43.2226 22.8433 43.287C22.7259 43.3513 22.6226 43.4386 22.5395 43.5436C22.4565 43.6487 22.3954 43.7693 22.3598 43.8984C22.3243 44.0275 22.315 44.1624 22.3326 44.2952C22.3501 44.4279 22.3942 44.5558 22.4621 44.6712C22.5301 44.7866 22.6205 44.8872 22.728 44.967C26.2431 47.7471 30.6557 49.1414 35.13 48.8857C39.6043 48.6301 43.8294 46.7423 47.005 43.58C47.02 43.567 47.039 43.562 47.053 43.548C47.067 43.534 47.071 43.515 47.084 43.501Z" fill="#006699"/>
<path d="M42.628 22.054C42.4405 21.8665 42.1862 21.7612 41.921 21.7612C41.6558 21.7612 41.4015 21.8665 41.214 22.054L35.609 27.66C35.1425 27.4114 34.6226 27.2796 34.094 27.276C33.4387 27.2758 32.7981 27.4699 32.2531 27.8338C31.7082 28.1978 31.2834 28.7151 31.0325 29.3205C30.7816 29.9258 30.7158 30.592 30.8435 31.2347C30.9713 31.8774 31.2867 32.4678 31.75 32.9313C32.2133 33.3947 32.8036 33.7103 33.4463 33.8383C34.089 33.9662 34.7552 33.9006 35.3606 33.6499C35.966 33.3992 36.4835 32.9745 36.8476 32.4297C37.2117 31.8849 37.406 31.2443 37.406 30.589C37.4023 30.0604 37.2706 29.5405 37.022 29.074L42.628 23.469C42.721 23.3761 42.7947 23.2658 42.8451 23.1444C42.8954 23.023 42.9213 22.8929 42.9213 22.7615C42.9213 22.6301 42.8954 22.4999 42.8451 22.3785C42.7947 22.2571 42.721 22.1469 42.628 22.054ZM34.094 31.901C33.8779 31.9015 33.665 31.8486 33.4742 31.747C33.2834 31.6455 33.1206 31.4984 33.0003 31.3188C32.88 31.1393 32.8059 30.9328 32.7846 30.7177C32.7632 30.5026 32.7953 30.2856 32.8779 30.0859C32.9606 29.8862 33.0912 29.71 33.2583 29.5729C33.4254 29.4358 33.6238 29.3421 33.8358 29.3001C34.0478 29.258 34.2669 29.269 34.4736 29.3319C34.6804 29.3949 34.8684 29.5079 35.021 29.661C35.2045 29.8444 35.3296 30.0781 35.3803 30.3326C35.431 30.5871 35.4051 30.8509 35.3058 31.0907C35.2066 31.3304 35.0385 31.5354 34.8228 31.6796C34.6071 31.8239 34.3535 31.9009 34.094 31.901ZM22.624 14.261H16.311C16.0458 14.261 15.7914 14.1556 15.6039 13.9681C15.4164 13.7806 15.311 13.5262 15.311 13.261C15.311 12.9958 15.4164 12.7414 15.6039 12.5539C15.7914 12.3663 16.0458 12.261 16.311 12.261H22.624C22.8892 12.261 23.1436 12.3663 23.3311 12.5539C23.5186 12.7414 23.624 12.9958 23.624 13.261C23.624 13.5262 23.5186 13.7806 23.3311 13.9681C23.1436 14.1556 22.8892 14.261 22.624 14.261ZM13.082 14.261H11.059C10.7938 14.261 10.5394 14.1556 10.3519 13.9681C10.1644 13.7806 10.059 13.5262 10.059 13.261C10.059 12.9958 10.1644 12.7414 10.3519 12.5539C10.5394 12.3663 10.7938 12.261 11.059 12.261H13.082C13.3472 12.261 13.6016 12.3663 13.7891 12.5539C13.9766 12.7414 14.082 12.9958 14.082 13.261C14.082 13.5262 13.9766 13.7806 13.7891 13.9681C13.6016 14.1556 13.3472 14.261 13.082 14.261ZM25.708 20.845H8.986C8.72079 20.845 8.46643 20.7396 8.2789 20.5521C8.09136 20.3646 7.986 20.1102 7.986 19.845C7.986 19.5798 8.09136 19.3254 8.2789 19.1379C8.46643 18.9503 8.72079 18.845 8.986 18.845H25.708C25.9732 18.845 26.2276 18.9503 26.4151 19.1379C26.6026 19.3254 26.708 19.5798 26.708 19.845C26.708 20.1102 26.6026 20.3646 26.4151 20.5521C26.2276 20.7396 25.9732 20.845 25.708 20.845ZM18.508 27.429H1.035C0.769787 27.429 0.515433 27.3236 0.327897 27.1361C0.140361 26.9486 0.0350037 26.6942 0.0350037 26.429C0.0350037 26.1638 0.140361 25.9094 0.327897 25.7219C0.515433 25.5343 0.769787 25.429 1.035 25.429H18.508C18.7732 25.429 19.0276 25.5343 19.2151 25.7219C19.4026 25.9094 19.508 26.1638 19.508 26.429C19.508 26.6942 19.4026 26.9486 19.2151 27.1361C19.0276 27.3236 18.7732 27.429 18.508 27.429ZM23.684 27.429H21.804C21.5388 27.429 21.2844 27.3236 21.0969 27.1361C20.9094 26.9486 20.804 26.6942 20.804 26.429C20.804 26.1638 20.9094 25.9094 21.0969 25.7219C21.2844 25.5343 21.5388 25.429 21.804 25.429H23.684C23.9492 25.429 24.2036 25.5343 24.3911 25.7219C24.5786 25.9094 24.684 26.1638 24.684 26.429C24.684 26.6942 24.5786 26.9486 24.3911 27.1361C24.2036 27.3236 23.9492 27.429 23.684 27.429ZM27.54 34.013H12.72C12.4548 34.013 12.2004 33.9076 12.0129 33.7201C11.8254 33.5326 11.72 33.2782 11.72 33.013C11.72 32.7478 11.8254 32.4934 12.0129 32.3059C12.2004 32.1183 12.4548 32.013 12.72 32.013H27.54C27.8052 32.013 28.0596 32.1183 28.2471 32.3059C28.4346 32.4934 28.54 32.7478 28.54 33.013C28.54 33.2782 28.4346 33.5326 28.2471 33.7201C28.0596 33.9076 27.8052 34.013 27.54 34.013ZM8.504 40.597H6.72C6.45479 40.597 6.20043 40.4916 6.0129 40.3041C5.82536 40.1166 5.72 39.8622 5.72 39.597C5.72 39.3318 5.82536 39.0774 6.0129 38.8899C6.20043 38.7023 6.45479 38.597 6.72 38.597H8.503C8.76822 38.597 9.02257 38.7023 9.21011 38.8899C9.39765 39.0774 9.503 39.3318 9.503 39.597C9.503 39.8622 9.39765 40.1166 9.21011 40.3041C9.02257 40.4916 8.76922 40.597 8.504 40.597ZM23.684 40.597H11.686C11.4208 40.597 11.1664 40.4916 10.9789 40.3041C10.7914 40.1166 10.686 39.8622 10.686 39.597C10.686 39.3318 10.7914 39.0774 10.9789 38.8899C11.1664 38.7023 11.4208 38.597 11.686 38.597H23.684C23.9492 38.597 24.2036 38.7023 24.3911 38.8899C24.5786 39.0774 24.684 39.3318 24.684 39.597C24.684 39.8622 24.5786 40.1166 24.3911 40.3041C24.2036 40.4916 23.9492 40.597 23.684 40.597Z" fill="#006699"/>
</svg>
