<svg width="477" height="446" viewBox="0 0 477 446" fill="none" xmlns="http://www.w3.org/2000/svg">
<path d="M246.232 250.444V221.069" stroke="black" stroke-opacity="0.2" stroke-width="10" stroke-miterlimit="10" stroke-linecap="round" stroke-linejoin="round"/>
<path d="M231.551 235.757H260.91" stroke="black" stroke-opacity="0.2" stroke-width="10" stroke-miterlimit="10" stroke-linecap="round" stroke-linejoin="round"/>
<path d="M110.999 101.104V86.211C110.999 73.7491 105.113 58.1374 95.5664 45.6412C86.0196 33.145 72.8457 23.73 58.303 23.73C29.1836 23.73 5.60742 61.3213 5.60742 86.211V158.929C5.60742 183.819 29.1836 182.209 58.303 182.209C66.4811 182.209 74.2144 182.346 81.1264 181.97" stroke="black" stroke-opacity="0.2" stroke-width="10" stroke-miterlimit="10" stroke-linecap="round" stroke-linejoin="round"/>
<path d="M419.303 182.209C390.184 182.209 366.607 183.819 366.607 158.929V86.211C366.607 61.3213 390.218 23.73 419.303 23.73C448.423 23.73 471.999 61.2871 471.999 86.211V158.929C471.999 183.819 448.423 182.209 419.303 182.209Z" stroke="black" stroke-opacity="0.2" stroke-width="10" stroke-miterlimit="10" stroke-linecap="round" stroke-linejoin="round"/>
<path d="M111 101.104V86.2114V82.7537C111 51.2222 139.606 5.68799 174.885 5.68799C192.541 5.68799 208.487 17.0886 220.087 32.3922C231.618 47.73 238.804 66.9708 238.804 82.7194V170.124C238.804 190.461 226.862 195.63 208.932 196.726" stroke="black" stroke-opacity="0.2" stroke-width="10" stroke-miterlimit="10" stroke-linecap="round" stroke-linejoin="round"/>
<path d="M302.69 196.76C267.411 196.76 238.805 201.724 238.805 170.192V82.7872C238.805 51.2556 267.411 5.72168 302.69 5.72168C337.968 5.72168 366.574 51.2556 366.574 82.7872V170.192C366.609 201.724 338.003 196.76 302.69 196.76Z" stroke="black" stroke-opacity="0.2" stroke-width="10" stroke-miterlimit="10" stroke-linecap="round" stroke-linejoin="round"/>
<path d="M202.565 269.957C206.671 265.917 208.929 259.926 208.929 251.059V163.653C208.929 147.871 201.778 128.63 190.212 113.326C178.646 97.9887 162.666 86.6221 145.01 86.6221C109.697 86.6221 81.125 132.156 81.125 163.688V251.093C81.125 282.624 109.731 277.66 145.01 277.66C163.796 277.66 180.665 279.064 192.368 275.606" stroke="black" stroke-opacity="0.2" stroke-width="10" stroke-miterlimit="10" stroke-linecap="round" stroke-linejoin="round"/>
<path d="M158.287 277.764C196.098 318.779 225.628 389.305 246.262 440.386L212.249 307.07L155.311 216.413L230.043 301.01C234.32 305.838 237.468 311.555 239.281 317.717L275.587 440.42" stroke="black" stroke-opacity="0.2" stroke-width="10" stroke-miterlimit="10" stroke-linecap="round" stroke-linejoin="round"/>
<path d="M169.889 277.901L212.866 319.19" stroke="black" stroke-opacity="0.2" stroke-width="10" stroke-miterlimit="10" stroke-linecap="round" stroke-linejoin="round"/>
<path d="M197.846 86.5886V64.3691" stroke="black" stroke-opacity="0.2" stroke-width="10" stroke-miterlimit="10" stroke-linecap="round" stroke-linejoin="round"/>
<path d="M186.76 75.4966H208.933" stroke="black" stroke-opacity="0.2" stroke-width="10" stroke-miterlimit="10" stroke-linecap="round" stroke-linejoin="round"/>
<path d="M65.3555 125.344V111.239" stroke="black" stroke-opacity="0.2" stroke-width="10" stroke-miterlimit="10" stroke-linecap="round" stroke-linejoin="round"/>
<path d="M58.3047 118.291H72.4367" stroke="black" stroke-opacity="0.2" stroke-width="10" stroke-miterlimit="10" stroke-linecap="round" stroke-linejoin="round"/>
<path d="M40.4413 200.013L42.8365 206.517C45.6424 214.084 51.5963 220.041 59.1585 222.848L65.6599 225.245L59.1585 227.641C51.5963 230.448 45.6424 236.406 42.8365 243.972L40.4413 250.477L38.046 243.972C35.2402 236.406 29.2862 230.448 21.724 227.641L15.2227 225.245L21.724 222.848C29.2862 220.041 35.2402 214.084 38.046 206.517L40.4413 200.013Z" stroke="black" stroke-opacity="0.2" stroke-width="10" stroke-miterlimit="10" stroke-linecap="round" stroke-linejoin="round"/>
<path d="M125.68 127.844L127.459 132.637C129.512 138.217 133.926 142.599 139.47 144.654L144.26 146.434L139.47 148.214C133.892 150.268 129.512 154.685 127.459 160.231L125.68 165.024L123.901 160.231C121.848 154.651 117.433 150.268 111.89 148.214L107.1 146.434L111.89 144.654C117.468 142.599 121.848 138.183 123.901 132.637L125.68 127.844Z" stroke="black" stroke-opacity="0.2" stroke-width="10" stroke-miterlimit="10" stroke-linecap="round" stroke-linejoin="round"/>
</svg>
