<svg width="473" height="303" viewBox="0 0 473 303" fill="none" xmlns="http://www.w3.org/2000/svg">
<path d="M141.917 196.092C143.828 188.562 141.499 180.405 136.093 175.773C129.941 170.484 122.803 171.052 120.593 164.897C115.427 150.524 107.901 130.235 89.2054 130.235C68.7479 130.115 63.193 150.375 57.9368 164.538C55.6372 170.813 48.1411 170.425 41.75 175.773C36.2548 180.375 33.9253 188.592 35.8367 196.182C38.644 207.417 40.8241 221.79 42.5264 236.252C44.5871 254.061 49.1565 285.615 55.9358 294.998C62.745 304.351 67.5533 295.895 67.2845 285.645C66.6275 260.994 66.3587 251.581 71.7941 229.947C76.8114 209.987 100.912 209.987 105.93 229.947C111.395 251.581 111.096 260.994 110.439 285.645C110.171 295.895 114.979 304.381 121.788 294.998C128.597 285.645 133.137 254.061 135.197 236.252C136.87 221.76 139.08 207.328 141.917 196.092Z" stroke="black" stroke-opacity="0.2" stroke-width="7" stroke-miterlimit="10" stroke-linecap="round" stroke-linejoin="round"/>
<path d="M108.379 23.1719C100.226 28.5804 84.0989 14.0583 75.0498 10.4726C38.2562 -5.90216 11.4375 37.0367 30.9393 82.1867C33.0298 86.9676 34.8516 93.6908 36.3747 101.46C37.2408 106.061 44.9459 107.675 44.9758 107.615C73.5566 114.906 103.541 114.846 132.152 107.466C132.152 107.526 139.887 105.912 140.753 101.31C142.276 93.5713 144.098 86.8481 146.188 82.0671C155.596 60.5828 155.805 34.2876 145.979 19.7954C136.183 4.46651 116.502 1.26925 87.9814 16.4487" stroke="black" stroke-opacity="0.2" stroke-width="7" stroke-miterlimit="10" stroke-linecap="round" stroke-linejoin="round"/>
<path d="M412.49 21.4523C402.903 26.9803 383.999 12.1893 373.367 8.51391C330.152 -7.77117 298.705 34.7792 321.581 80.4671C324.06 85.3675 326.15 92.2102 327.942 100.099C328.988 104.79 338.007 106.792 338.037 106.702C371.575 115.278 406.786 115.219 440.354 106.583C440.354 106.643 449.433 104.641 450.448 99.9793C452.24 92.0907 454.361 85.248 456.84 80.3475C467.89 58.2955 468.128 32.2991 456.601 17.777C445.103 2.44808 422.017 -0.958335 388.508 14.5498" stroke="black" stroke-opacity="0.2" stroke-width="7" stroke-miterlimit="10" stroke-linecap="round" stroke-linejoin="round"/>
<path d="M254.269 21.3488C244.683 26.8768 225.778 12.0857 215.146 8.41039C171.932 -7.87469 140.484 34.6757 163.36 80.3635C165.839 85.264 167.93 92.1067 169.722 99.9953C170.767 104.687 179.786 106.689 179.816 106.599C213.354 115.175 248.565 115.115 282.133 106.479C282.133 106.539 291.212 104.537 292.228 99.8758C294.02 91.9872 296.14 85.1445 298.619 80.244C309.669 58.1919 309.908 32.1956 298.38 17.6735C286.882 2.34457 263.796 -1.06185 230.288 14.4463" stroke="black" stroke-opacity="0.2" stroke-width="7" stroke-miterlimit="10" stroke-linecap="round" stroke-linejoin="round"/>
<path d="M446.301 196.092C448.541 188.562 445.823 180.405 439.491 175.773C432.264 170.484 423.872 171.052 421.274 164.897C415.211 150.524 406.371 130.235 384.42 130.235C360.409 130.115 353.869 150.375 347.716 164.538C344.999 170.813 336.218 170.425 328.722 175.773C322.271 180.375 319.524 188.592 321.764 196.182C325.079 207.417 327.647 221.79 329.618 236.252C332.037 254.061 337.383 285.615 345.357 294.998C353.331 304.351 358.976 295.895 358.677 285.645C357.9 260.994 357.572 251.581 363.993 229.947C369.906 209.987 398.158 209.987 404.072 229.947C410.463 251.581 410.164 260.994 409.388 285.645C409.059 295.895 414.704 304.381 422.707 294.998C430.681 285.645 436.027 254.061 438.446 236.252C440.417 221.76 442.986 207.328 446.301 196.092Z" stroke="black" stroke-opacity="0.2" stroke-width="7" stroke-miterlimit="10" stroke-linecap="round" stroke-linejoin="round"/>
<path d="M4.15039 184.439C22.6069 184.439 55.2195 195.584 90.4004 192.088C107.214 190.415 140.663 184.469 157.537 184.439C175.754 184.379 198.721 191.102 230.019 192.088C259.078 193.014 285.239 184.498 303.785 184.439C323.198 184.349 361.694 192.088 381.106 192.088C413.987 192.118 451.498 176.879 473 184.439" stroke="black" stroke-opacity="0.2" stroke-width="7" stroke-miterlimit="10" stroke-linecap="round" stroke-linejoin="round"/>
<path d="M231.331 130.445V168.334" stroke="black" stroke-opacity="0.2" stroke-width="7" stroke-miterlimit="10" stroke-linecap="round" stroke-linejoin="round"/>
<path d="M218.459 156.5L231.45 169.588L244.173 156.5" stroke="black" stroke-opacity="0.2" stroke-width="7" stroke-miterlimit="10" stroke-linecap="round" stroke-linejoin="round"/>
</svg>
