<svg width="116" height="116" viewBox="0 0 116 116" fill="none" xmlns="http://www.w3.org/2000/svg">
<g clip-path="url(#clip0_3692_760)">
<g filter="url(#filter0_d_3692_760)">
<path d="M67.2728 84.6253L56.5943 72.6354H50.6106C49.6801 72.6354 48.9261 71.8812 48.9261 70.9509C48.9261 70.0206 49.6801 69.2664 50.6106 69.2664H61.3298M67.2728 84.6253L114.182 114.819M67.2728 84.6253L56.9523 96.5436M67.2728 84.6253L56.9523 96.5436M61.3298 69.2664L61.2892 69.7648L61.2919 69.765L61.3095 69.7664M61.3298 69.2664V69.2998V69.7664H61.3095M61.3298 69.2664L61.3325 69.2667C61.5283 69.2657 61.7158 69.1873 61.8541 69.0486C61.9923 68.9098 62.07 68.722 62.0703 68.5262V62.9973C62.0751 62.9971 62.08 62.997 62.0849 62.9968L62.0703 62.4971H61.5703V62.5028C53.7688 62.4553 47.3573 55.9525 47.3811 48.1962V45.1788V44.6788H46.8811H43.3862C40.4554 44.6788 38.0713 42.2945 38.0713 39.3637V35.7719C38.0713 32.8411 40.4554 30.4568 43.3862 30.4568H46.8811H47.3811V29.9568V12.0883C47.3811 8.81679 48.8439 5.76541 51.3942 3.7164L111.484 82.9208M61.3095 69.7664H50.6106C49.9563 69.7664 49.4261 70.2967 49.4261 70.9509C49.4261 71.6051 49.9563 72.1354 50.6106 72.1354H56.5943H56.8186L56.9677 72.3029L67.6462 84.2928L67.9383 84.6207L67.6508 84.9527L57.3303 96.8709C57.2285 96.9885 57.1508 97.1251 57.1017 97.2727C57.0526 97.4203 57.0331 97.5761 57.0443 97.7313C57.0668 98.0447 57.2129 98.3362 57.4504 98.5419C57.6878 98.7476 57.9973 98.8505 58.3107 98.828C58.6241 98.8054 58.9156 98.6594 59.1213 98.4219L59.1236 98.4192L82.0593 72.3057L82.2087 72.1356H82.435H96.4367C102.824 72.1356 108.283 76.9067 109.134 83.2165L109.135 83.2228L112.863 113.786C112.901 114.098 113.061 114.382 113.309 114.575C113.556 114.769 113.87 114.856 114.182 114.819M61.3095 69.7664L61.3133 69.7668L61.3349 69.7667C61.6628 69.7651 61.9768 69.6338 62.2083 69.4015C62.4397 69.1692 62.5699 68.8547 62.5703 68.5268V68.5262V62.4971V61.9822L62.0557 61.9973C54.3145 62.2234 47.8577 55.8387 47.8811 48.1978V48.1962V44.6788V44.1788H47.3811H43.3862C40.7316 44.1788 38.5713 42.0184 38.5713 39.3637V35.7719C38.5713 33.1173 40.7316 30.9568 43.3862 30.9568H47.3811H47.8811V30.4568V12.0883C47.8811 8.96833 49.2752 6.06029 51.7074 4.10618L51.7074 4.10617C54.1394 2.15206 57.2787 1.41704 60.3263 2.08961L60.4262 1.63703L60.3263 2.08961L85.5316 7.65156C87.0899 7.99542 88.5553 9.06039 89.6354 10.6974L90.0527 10.422L89.6354 10.6974C90.5994 12.1583 91.1482 13.9295 91.1482 15.541V30.4566V30.9566H91.6482H95.6429C98.2976 30.9566 100.458 33.1171 100.458 35.7717V39.3635C100.458 42.0181 98.2976 44.1786 95.6429 44.1786H91.6482H91.1482V44.6786V48.196V48.1965C91.1565 55.9258 84.6484 62.2219 76.9737 61.997L76.4591 61.982V62.4968V68.5259V68.5264C76.4594 68.8545 76.5896 69.1691 76.8211 69.4014C77.0527 69.6338 77.3669 69.765 77.695 69.7664L77.7118 69.7665L77.7164 69.7662H96.4367C104.002 69.7662 110.471 75.4213 111.484 82.9181C111.484 82.919 111.484 82.9199 111.484 82.9208M114.182 114.819C114.494 114.78 114.777 114.62 114.971 114.372C115.165 114.125 115.252 113.811 115.214 113.499L111.484 82.9208M114.182 114.819L111.484 82.9208M56.9523 96.5436C56.8075 96.7109 56.6971 96.905 56.6273 97.1149M56.9523 96.5436L56.6273 97.1149M56.6273 97.1149C56.5575 97.3248 56.5297 97.5465 56.5456 97.7671M56.6273 97.1149L56.5456 97.7671M56.5456 97.7671C56.5776 98.2127 56.7853 98.6274 57.123 98.9199M56.5456 97.7671L57.123 98.9199M57.123 98.9199C57.4608 99.2124 57.9009 99.3587 58.3465 99.3267M57.123 98.9199L58.3465 99.3267M58.3465 99.3267C58.7922 99.2947 59.2068 99.0869 59.4993 98.7492M58.3465 99.3267L59.4993 98.7492M59.4993 98.7492L82.435 72.6356L59.4993 98.7492ZM95.6432 33.3256H95.1432V33.3258H91.6485H91.1485V33.8258V41.3096V41.8096H91.6485H95.6432C96.9924 41.8096 98.0893 40.7127 98.0893 39.3635V35.7717C98.0893 34.4224 96.9924 33.3256 95.6432 33.3256ZM43.3862 41.8096H43.8862V41.8094H47.3811H47.8811V41.3094V33.8256V33.3256H47.3811H43.3862C42.0371 33.3256 40.9403 34.4225 40.9403 35.7717V39.3635C40.9403 40.7127 42.0371 41.8096 43.3862 41.8096ZM50.7501 22.6643H50.2501V23.1643V48.196C50.2501 54.4999 55.378 59.6279 61.6819 59.6276H77.3474C83.6515 59.6276 88.7795 54.4997 88.7795 48.1958V23.1641V22.6641H88.2795H82.5345C81.8802 22.6641 81.35 22.1338 81.35 21.4796C81.35 20.8254 81.8802 20.2951 82.5345 20.2951H88.2795H88.7795V19.7951V15.5408C88.7795 14.4097 88.3867 13.1534 87.7431 12.1223C87.1036 11.0977 86.1653 10.217 85.0212 9.96451L84.9284 10.3851L85.0212 9.96451L59.8159 4.4028C57.4761 3.88636 55.0596 4.45124 53.1911 5.95264C51.3228 7.45394 50.2501 9.69119 50.2501 12.0881V19.7954V20.2954H50.7501H74.648C75.3023 20.2954 75.8325 20.8257 75.8325 21.4799C75.8325 22.134 75.3023 22.6643 74.648 22.6643H50.7501ZM69.1414 82.4094L69.5148 82.8286L69.8882 82.4094L78.2969 72.9682L79.0877 72.0803L77.9 72.1362C75.8264 72.2338 74.0796 70.4475 74.0903 68.5287V68.5259V62.4968V61.9968H73.5903H65.4395H64.9395V62.4968L64.9394 68.5259L64.9395 68.5293C64.9532 70.5707 63.0222 72.2603 61.139 72.1367L59.9212 72.0568L60.7329 72.9682L69.1414 82.4094Z" stroke="black" shape-rendering="crispEdges"/>
</g>
<path d="M69.5141 51.4501C71.4087 51.4497 73.2728 50.9732 74.9352 50.0646C75.3213 49.8468 75.6059 49.4856 75.7275 49.0593C75.849 48.6331 75.7977 48.1761 75.5846 47.7875C75.3716 47.3988 75.0139 47.1097 74.5892 46.983C74.1645 46.8562 73.7069 46.9019 73.3157 47.1102C72.1498 47.7472 70.8426 48.081 69.5141 48.0809C68.1822 48.0809 66.8683 47.7456 65.7139 47.1111C65.3224 46.8959 64.8614 46.8451 64.4324 46.9698C64.0034 47.0945 63.6415 47.3845 63.4263 47.776C63.2111 48.1676 63.1602 48.6285 63.2849 49.0576C63.4096 49.4866 63.6997 49.8485 64.0912 50.0637C65.7413 50.9706 67.6165 51.4501 69.5141 51.4501ZM25.8837 66.902L23.4111 67.6712L20.939 66.902C18.1432 65.9436 15.0677 66.7508 12.9071 69.0134C10.7472 71.2756 10.0823 74.384 11.1685 77.1329L12.5765 81.0173C12.6138 81.814 12.7539 84.2151 13.1699 86.6787C13.6831 89.7104 14.7679 94.0182 17.9215 94.0359C20.2378 94.0359 22.0797 91.6439 23.4111 86.9108C24.743 91.6442 26.5845 94.0364 28.901 94.0359C31.9103 94.068 33.1766 89.8281 33.6526 86.6787C34.0685 84.2151 34.2087 81.8142 34.2459 81.0173L35.6537 77.1331C36.7403 74.3843 36.0755 71.2758 33.9158 69.0139C31.7551 66.7511 28.68 65.9436 25.8837 66.902ZM32.5147 75.9095C32.508 75.9266 32.5013 75.9436 32.4952 75.9609L30.9904 80.1135C30.9302 80.2792 30.8965 80.4533 30.8907 80.6294C30.8898 80.6532 30.8033 83.0432 30.4179 85.5753C29.8537 89.2794 29.1137 90.3597 28.8693 90.6258C28.3547 90.2975 27.1311 88.3992 26.1755 84.0759C25.9138 82.7683 24.7816 81.8578 23.4113 81.8578H23.4111C22.0408 81.8578 20.9089 82.7683 20.647 84.0759C19.6913 88.3992 18.4677 90.2977 17.9532 90.6261C17.7088 90.3599 16.9687 89.2796 16.4046 85.5755C16.0189 83.0434 15.9324 80.6535 15.9318 80.6297C15.9258 80.4535 15.8922 80.2794 15.8321 80.1138L14.3272 75.9612C14.3212 75.9439 14.3144 75.9268 14.3077 75.9097C13.5838 74.0988 14.3683 72.362 15.3438 71.3403C16.3194 70.3188 18.0176 69.4546 19.8616 70.0944C19.8786 70.1003 19.8959 70.1061 19.9132 70.1115L22.9105 71.044C23.2364 71.1453 23.5854 71.1453 23.9113 71.044L26.9088 70.1115C26.9263 70.1061 26.9436 70.1003 26.9607 70.0944C28.8051 69.4546 30.5032 70.319 31.4789 71.3407C32.4543 72.362 33.2386 74.0986 32.5147 75.9095Z" fill="#7243A8"/>
<path d="M44.1042 58.7222C44.6096 57.3168 44.1702 55.8215 42.985 54.913C41.7998 54.0043 40.2418 53.9683 39.0155 54.8216L32.8134 59.1377C27.5933 56.7511 21.7601 56.4286 16.274 58.244C10.4648 60.1665 5.77162 64.2491 3.05915 69.7396C0.440339 75.0408 0.00708916 81.0827 1.83958 86.7522C3.67208 92.422 7.55965 97.0671 12.7858 99.8326C16.4016 101.721 20.4889 102.689 24.6601 102.441L23.3172 113.438C23.2886 113.658 23.3039 113.882 23.3623 114.097C23.4206 114.311 23.5208 114.512 23.6571 114.687C23.7935 114.863 23.9632 115.01 24.1565 115.12C24.3498 115.229 24.5629 115.3 24.7835 115.327C25.0042 115.353 25.228 115.336 25.442 115.277C25.656 115.217 25.8561 115.115 26.0306 114.977C26.2052 114.84 26.3507 114.669 26.459 114.475C26.5672 114.281 26.636 114.067 26.6613 113.846L28.1108 101.974C34.5696 100.674 40.6126 96.129 43.6018 90.1131C45.5502 86.3091 46.3838 82.0318 46.0063 77.7745C45.6289 73.5173 44.0558 69.4534 41.4686 66.0515L44.1042 58.7222ZM40.6025 88.5793C36.0935 97.9127 23.5775 101.982 14.3616 96.8546C9.91501 94.502 6.60668 90.5461 5.0455 85.7159C3.48431 80.8859 3.85176 75.742 6.07977 71.2316C8.38953 66.5557 12.386 63.0791 17.3326 61.4423C19.3308 60.7811 21.3825 60.4529 23.4252 60.4529C26.44 60.4529 29.4341 61.1683 32.1998 62.5828C32.4716 62.7218 32.7761 62.7843 33.0806 62.7637C33.3852 62.7431 33.6784 62.6401 33.929 62.4658L40.9288 57.5963L37.9812 65.7941C37.8822 66.0698 37.8567 66.3665 37.9073 66.6551C37.9579 66.9436 38.0829 67.214 38.2698 67.4395C40.6857 70.3477 42.1945 73.9013 42.6092 77.6593C43.0239 81.4172 42.3261 85.2143 40.6025 88.5793ZM95.415 88.2712H90.0206V86.33C90.0206 85.3997 89.2666 84.6455 88.3361 84.6455C87.4056 84.6455 86.6516 85.3997 86.6516 86.33V88.2712H81.257C79.7059 88.2712 78.4441 89.5332 78.4441 91.0843V94.6895C78.4441 96.2406 79.7059 97.5026 81.257 97.5026H95.4147C96.9658 97.5026 98.2278 96.2406 98.2278 94.6895V91.0843C98.228 89.5332 96.966 88.2712 95.415 88.2712ZM94.8591 94.1336H81.8131V91.6401H94.8591V94.1336ZM67.4366 36.6215C68.1946 36.2381 69.6742 35.7986 71.604 36.7057C72.1078 39.9289 74.9024 42.4026 78.2647 42.4026C81.9822 42.4026 85.0066 39.3782 85.0066 35.6607C85.0066 31.9431 81.9822 28.9187 78.2647 28.9187C75.4046 28.9187 72.9567 30.7096 71.9786 33.228C69.9925 32.5644 68.2862 32.7649 67.0285 33.1726C66.0362 30.6831 63.6033 28.9185 60.7644 28.9185C57.0467 28.9185 54.0222 31.9429 54.0222 35.6604C54.0222 39.378 57.0467 42.4024 60.7644 42.4024C64.1556 42.4029 66.9687 39.8856 67.4366 36.6215ZM78.2647 32.2879C80.1243 32.2879 81.6377 33.801 81.6377 35.6609C81.6377 37.5208 80.1246 39.0339 78.2647 39.0339C76.4048 39.0339 74.8916 37.5208 74.8916 35.6609C74.8916 33.801 76.4048 32.2879 78.2647 32.2879ZM60.7644 39.0339C58.9045 39.0339 57.3912 37.5208 57.3912 35.6609C57.3912 33.801 58.9043 32.2879 60.7644 32.2879C62.6241 32.2879 64.1374 33.801 64.1374 35.6609C64.1374 37.5208 62.6241 39.0339 60.7644 39.0339Z" fill="#7243A8"/>
</g>
<defs>
<filter id="filter0_d_3692_760" x="34.0713" y="1.34595" width="85.6514" height="121.981" filterUnits="userSpaceOnUse" color-interpolation-filters="sRGB">
<feFlood flood-opacity="0" result="BackgroundImageFix"/>
<feColorMatrix in="SourceAlpha" type="matrix" values="0 0 0 0 0 0 0 0 0 0 0 0 0 0 0 0 0 0 127 0" result="hardAlpha"/>
<feOffset dy="4"/>
<feGaussianBlur stdDeviation="2"/>
<feComposite in2="hardAlpha" operator="out"/>
<feColorMatrix type="matrix" values="0 0 0 0 0 0 0 0 0 0 0 0 0 0 0 0 0 0 0.25 0"/>
<feBlend mode="normal" in2="BackgroundImageFix" result="effect1_dropShadow_3692_760"/>
<feBlend mode="normal" in="SourceGraphic" in2="effect1_dropShadow_3692_760" result="shape"/>
</filter>
<clipPath id="clip0_3692_760">
<rect width="115" height="115" fill="white" transform="translate(0.722656 0.836426)"/>
</clipPath>
</defs>
</svg>
